<?xml version="1.0" encoding="utf-8"?>
<!-- Generator: Adobe Illustrator 18.1.1, SVG Export Plug-In . SVG Version: 6.00 Build 0)  -->
<svg version="1.1" id="logo" xmlns="http://www.w3.org/2000/svg" xmlns:xlink="http://www.w3.org/1999/xlink" x="0px" y="0px"
	 viewBox="0 0 128.4 145" enable-background="new 0 0 128.4 145" xml:space="preserve">
<g id="XMLID_2_">
	<circle id="XMLID_2209_" fill="#FFC20E" cx="64.2" cy="80.8" r="62.7"/>
	<g id="XMLID_2198_">
		<path id="XMLID_2208_" fill="#F58220" d="M18.4,49.4c-1.7,1.9-6.1,8-4.8,10.4c1.3,2.4,6.3,8.8,8.5,7.6c2.2-1.2,7.4-12.7,6.1-15.1
			C26.9,50,20.5,46.9,18.4,49.4z"/>
		<path id="XMLID_2207_" fill="#F58220" d="M9.6,68.2c0.7-3.3,2-3.9,3.8-2.4c1.9,1.5,5.3,3.9,5.1,5.5c-0.2,1.5-5.5,12.2-7.3,12.2
			S7.4,78.1,9.6,68.2z"/>
		<path id="XMLID_2206_" fill="#F58220" d="M23.2,73.1c-1.9-0.4-8.3,11.6-8,14.2c0.3,2.6,6.9,10.8,9.5,10c3.8-1.2,9.1-16.4,7.7-19.5
			C30.9,74.8,23.2,73.1,23.2,73.1z"/>
		<path id="XMLID_2205_" fill="#F58220" d="M11.6,91.6c-2.3,0.9,1.9,15.3,4.1,14.7c2.3-0.5,5.5-5.1,4.6-6.8
			C19.5,97.9,13.2,91,11.6,91.6z"/>
		<path id="XMLID_2204_" fill="#F58220" d="M28.6,105.9c0,0-3.6-4-5-3.6c-1.4,0.4-5.9,6.5-5.6,8.4c0.3,1.9,7.9,12.6,9.9,10.5
			S32.8,108.9,28.6,105.9z"/>
		<path id="XMLID_2203_" fill="#F58220" d="M91.1,33.2c5.4,3.3,12,7.6,11.8,9.6c-0.2,2-3.8,10.6-8.2,9.2C90.3,50.5,79.8,44.2,80,41
			C80.2,37.9,84.9,29.5,91.1,33.2z"/>
		<path id="XMLID_2202_" fill="#F58220" d="M107.1,46.8c3.3,0.8,7.4,10.9,7.5,13.2c0.1,2.3,0,3.6-2.5,3.2S102,56,101,54.9
			C100,53.8,103.8,46.1,107.1,46.8z"/>
		<path id="XMLID_2201_" fill="#F58220" d="M96.1,58.5c0,0,0.4-2.2,2.5-1.3s11.5,8.1,11.1,10.3c-0.3,2.2-3.8,11.7-7,11.8
			C99.6,79.4,92.9,72,92,68S96.1,58.5,96.1,58.5z"/>
		<path id="XMLID_2200_" fill="#F58220" d="M113.6,69.4c0.7-0.7,2-2.4,4.6,1.5c2.6,3.9,2.4,16,0.4,17.1s-9.8-5.1-10.2-6.9
			C108.2,79.5,111.5,71.7,113.6,69.4z"/>
		<path id="XMLID_2199_" fill="#F58220" d="M105.4,87.9c1.5-2.2,2.9-2.2,4.9-0.9s7.6,6.2,7.2,9c-0.4,2.7-5,14.6-8,14.6
			s-9.3-5.2-9.3-9.5S105.4,87.9,105.4,87.9z"/>
	</g>
	<path id="XMLID_2139_" fill="#FFFFFF" d="M109,105.5c-1.7-9.5-3.4-17.6-5.2-24.7c1.1-2.4,1.2-5.3,0.7-7.3c-0.7-2.4-2.3-4.2-4.2-5.2
		C96.7,58,92.8,50.5,88,44.5c-9.3-11.6-29.8-16.7-44.5-10.6C28.8,40,28.1,62.6,27.7,76.3c0,0,0.2,21.1-1.8,36.5
		c-0.6,4.7-1.8,9.8-3.3,14.8c11.1,9.9,25.7,15.9,41.7,15.9c19,0,36-8.5,47.5-21.8C111.1,115.8,110.1,110.4,109,105.5z"/>
	<g id="XMLID_2177_" opacity="0.42">
		<path id="XMLID_2178_" fill="#36140A" d="M97.5,73.5c0,0,0.7,2.4-0.3,6c-0.9,3.3-4.3,5.2-6.9,4.1s-1.5-5.2,0.4-7.2
			C92.5,74.5,94.9,73.7,97.5,73.5z"/>
	</g>
	<path id="XMLID_2176_" fill="#20BEC6" d="M97.5,73.3c1.8,2.4-0.3,10.2-5.2,10.7c-3.9,0.3-3.9-2.7-3.6-4
		C89.3,76.9,93,73.5,97.5,73.3z"/>
	<path id="XMLID_2129_" fill="#FBC2A9" d="M43.5,33.9C28.8,40,28.1,62.6,27.7,76.3c0,0,0,1.7,0,4.5c9.7,3.1,18.6-2.2,22.2-3.7
		c4-1.6,13.8,1.4,17.8,2.4c1-10.2-6.8-13.3-10.2-13c3.2,1.1,2.3,7.1,1.9,8.2c-0.5,1.1-6.1,0.3-6.6-0.6c-0.5-0.9,0.2-6.7,1.6-7.4
		c-0.3,0-4,0.9-6.9,2.1c2.4-2.9,2.3-5.7,6-13.6C57.1,47.5,62.2,41,71,41.3c6.7,0.2,11.1-1.4,11.1-1.4s0-0.3,0-0.9
		C71.7,31.4,55.7,28.8,43.5,33.9z M97.7,67.9c0,0-1.2,3.4,2.1,4.8c3.3,1.4,4.8,1,4.8,1S104.1,68.8,97.7,67.9z M88.6,78.4
		c0.4-1.4,3.8-4.1,5.2-5.6s-0.4-4.1-0.4-4.1C90.2,70.4,87.9,75.1,88.6,78.4z"/>
	<path id="XMLID_2152_" fill="#FFFFFF" d="M96.8,76.5c-1.3,0.4-1.9,1.2-1.6,2c0.2,0.8,1.8,1.4,3.4,0.2C100,77.5,98.4,76,96.8,76.5z"
		/>
	<path id="XMLID_2151_" fill="#F58220" d="M76.8,90.2c0,0,0.4-7.8,6.4-9.8c2.1-0.4,8.8,1.8,10.4,4.5c1.6,2.6,0.3,6.3-2.8,6.7
		c1.7,1.6,3.4,6.3-1,9.2c-3,2-8.9-0.2-11.3-3.8C76.7,94.2,76.8,90.2,76.8,90.2z"/>
	<g id="XMLID_2149_">
		<path id="XMLID_2150_" fill="#EF4123" d="M93.8,86.9c0-0.9-0.8-2.8-3.6-2.6c-2.8,0.2-6.1,3.8-8.8,4.6c-2.6,0.8-4.1-0.1-4.1-0.1
			s-1.3,8.1,4.8,11c6.1,3,9.2,0.1,10-2.6S91,91.6,91,91.6S93.9,90.7,93.8,86.9z"/>
	</g>
	<path id="XMLID_2144_" fill="#FBC2A9" d="M89.6,96.1c-0.9-0.4-1.4,1.1-2.3,1.5c-1,0.4-0.2,1.8,1.3,1.1S90.6,96.5,89.6,96.1z"/>
	<g id="XMLID_2134_">
		<path id="XMLID_2135_" fill="#36140A" d="M64.2,145C28.8,145,0,116.2,0,80.8s28.8-64.2,64.2-64.2c35.4,0,64.2,28.8,64.2,64.2
			S99.6,145,64.2,145z M64.2,19.6C30.5,19.6,3,47,3,80.8s27.4,61.2,61.2,61.2c33.7,0,61.2-27.4,61.2-61.2S97.9,19.6,64.2,19.6z"/>
	</g>
	<path id="XMLID_2133_" fill="#EF4123" d="M55.4,37.9c3.1-1.3,7.2-3.1,14.9-0.6c10,3.3,19.2,0.7,23.1-6.7C99.3,19.5,97,6.1,81.8,2.2
		C69-1.2,59.7,7.3,59.7,7.3s-12.5-8.6-24-0.5c-9.4,6.7-5.5,20.6-5.5,20.6s-13,3.1-13.6,16.6c-0.5,11.1,6.7,14.4,7.5,22.6
		c0.6,5.7-5,6.2-5,6.2s4.7,4.5,13.2,0.7c9.2-4.1,10-11.6,11.8-18.8C46,47.2,49.1,40.5,55.4,37.9z"/>
	<path id="XMLID_2132_" fill="#F58220" d="M81.8,2.2C69-1.2,59.7,7.3,59.7,7.3s-12.5-8.6-24-0.5c-9.4,6.7-5.5,20.6-5.5,20.6
		s-13,3.1-13.6,16.6c-0.5,11.1,6.7,14.4,7.5,22.6c0.2,2-0.3,3.3-1.1,4.2c6.8-3.6,0.9-16.8-0.7-24.3c-1.9-8.7,4.7-17.1,12.8-17.2
		c-1.5-5.7-0.7-13.7,4.3-17.5c4.4-3.3,13.4-4.6,17.7,5.5c8.6-14.4,34.3-12.4,34.2,3.1C91.3,35.7,73,37.8,73,37.8l0.1,0.2
		c8.9,2,16.7-0.8,20.3-7.5C99.3,19.5,97,6.1,81.8,2.2z"/>
	<path id="XMLID_2126_" fill="#36140A" d="M49.4,89.7c-0.7-0.2-1.7,0.4-2,1.3c-0.3,0.8-0.1,1.6,0.7,1.6c0.8,0,1.6-0.5,1.9-1.3
		S50.1,89.9,49.4,89.7z M49.2,57.5c1.1-1.1,2.8-2.2,5.2-2.1c2.4,0.1,8.3,2.7,9.1,2.8c0.8,0.1,1.4-0.9,1.2-2s-7.6-3.2-11.5-2.9
		c-3.9,0.3-7,5.2-7.1,6.3c0,0-0.1,0.6,0.4,0.6C47,60.2,48.1,58.6,49.2,57.5z M112.9,119.5c-0.6-5-1.5-9.8-2.6-14.2
		c-1.7-9.5-3.4-17.6-5.2-24.8c0.6-1.7,0.8-3.4,0.8-5c3.3-0.2,4.9-3.4,4.2-4.7c-0.9,0.7-2.1,2.3-4.7,2.1c-0.1-0.2-0.1-0.4-0.2-0.6
		c1.7-1.1,2.7-3,2.1-4.2c-0.6,1.5-1.6,2.4-2.6,3c-0.8-1.3-1.8-2.5-3.1-3.3C97.9,57.3,94,49.7,89.1,43.6c-1.3-1.6-2.7-3-4.3-4.3
		c4.3-1.3,7.7-4,9.8-8c3.5-6.7,4.1-13.8,1.6-19.5C93.9,6.4,89,2.6,82.2,0.8c-11.4-3-19.9,2.7-22.5,4.8c-3.2-1.8-14.4-7.2-24.7,0.1
		c-8.4,6-7.1,17-6.3,20.8c-3.5,1.3-12.8,5.7-13.4,17.4c-0.3,6.7,2.1,10.8,4.2,14.5c1.5,2.6,3,5.1,3.3,8.3c0.1,1.3,0.1,2.7-0.5,3.5
		c-1.1,1.3-1.8,1.1-3.3,1.5c-1.7,0.5-1.8,3.6,5.1,4.5c0.7,0.1,1.4,0.1,2.2,0.1c0,0,0,0,0,0.1c0,0.2,0.7,22.4-1.8,36.3
		c-0.8,4.8-1.9,9.4-3.2,13.8c0.8,0.7,1.5,1.4,2.3,2.1c1.5-5,2.7-10.2,3.6-15.6c2.5-15.8,1.8-36.5,1.8-36.6c0-0.1,0-0.3,0-0.5
		c1.2-0.3,2.5-0.7,3.8-1.3c8.8-3.9,10.4-10.8,12-17.5c0.2-0.8,0.4-1.5,0.5-2.3c2.1-8.5,5.6-13.6,10.5-15.6l0.2-0.1
		c3-1.2,6.7-2.8,13.7-0.5c4,1.3,7.8,1.7,11.3,1.4c2.2,1.6,4.2,3.3,5.8,5.3c2.8,3.5,5.2,7.5,7.5,12.3c-3.9-0.3-7.5,3.3-8.1,4.4
		c-0.5,0.9-0.8,2.4,0.5,2.6c1.1,0.2,1.9-1.1,3.4-2.8c1.6-1.8,3.6-2.2,5-2.4c0.9,2.2,1.9,4.5,2.7,7c-1.9-0.4-3.8-0.1-5.4,0.8
		c-5.2,3.1-5.7,9.7-5.7,12.7c-1.6-0.4-3.1-0.6-4-0.4l-0.2,0c-5.3,1.8-6.6,7.1-6.9,9.5c-0.8-0.5-1.2-0.9-1.2-0.9
		c0.1,0.8,0.5,1.4,1.1,2c0,0.1,0,0.1,0,0.1l0,0c0,0.2,0,4.2,1.9,7.3c1.3,2.1,3.4,3.7,6,4.6c0.7,0.2,1.4,0.4,2,0.4
		c1.8,0.2,3.5-0.1,4.8-0.8c2.4-1.5,3.1-3.4,3.3-4.8c0.2-1.8-0.3-3.5-1-4.7c1-0.5,1.7-1.3,2.2-2.4c0.5-1,0.6-2.2,0.5-3.3
		c3.9,0.2,6.3-1.2,7.7-2.7c1.6,6.5,3.1,13.7,4.6,22.1c0.2,1.1,0.5,2.1,0.7,3.2c0.2,1.1,0.4,2.2,0.6,3.3c0.2,0.9,0.3,1.8,0.5,2.8
		c0.4,2.3,0.6,4.6,1,6.9c0.1,0.4,0.1,0.7,0.1,1.1c1-1.1,1.9-2.2,2.8-3.3C113.2,119.6,113,119.5,112.9,119.5z M70.7,36
		c-7.9-2.6-12.4-0.8-15.6,0.5l-0.2,0.1c-5.8,2.4-9.7,8.1-12.1,17.5c-0.2,0.8-0.4,1.5-0.6,2.3c-1.5,6.6-2.9,12.2-10.5,15.6
		c-4.3,1.9-7.4,1.6-9.4,0.9c0.6-0.3,1.2-0.8,1.7-1.4c1.1-1.4,1.6-3.1,1.4-5.2c-0.4-3.8-2.1-6.7-3.7-9.4c-2.1-3.6-4.1-7.1-3.8-13
		c0.6-12.3,12.1-15.2,12.6-15.3l1.4-0.3L31.5,27c0-0.1-3.5-13,5-19.1c9-6.3,18.6-1.8,21.5,0c-1.1,1.9-1.4,4-0.4,4.1
		c0.6-1.2,2.2-3,2.2-3l0.8-0.7c0.1-0.1,8.9-7.9,20.8-4.8c6,1.6,10.3,4.8,12.3,9.4c2.2,4.9,1.6,11.2-1.5,17.1
		C88.6,36.8,80.2,39.1,70.7,36z M93.7,69.1c1.5-0.8,3.5-0.9,5.3-0.1c1.4,0.6,2.6,1.6,3.5,2.9c-0.2,0-0.4,0.1-0.5,0.1
		c-3-0.8-5.9-1.1-8.6,0.7c-1.8,1.2-3.1,2.7-3.9,4.3C89.7,74.2,90.8,70.8,93.7,69.1z M91.5,96.6c-0.2,1.3-0.9,2.4-2.2,3.2
		c-1.2,0.7-3.1,0.8-5,0.2c-2-0.7-3.8-2-4.8-3.6c-1-1.7-1.4-3.8-1.5-5.1c1.9,0.7,4,0.7,4,0.7s1.4,3.5,4.1,3.7c2.7,0.2,2.9-2,1.9-3.2
		c0.8,0.1,1.5,0.1,2.1,0C91,93.4,91.7,95,91.5,96.6z M92.9,88.8c-0.3,0.5-0.9,1.5-2.2,1.7l-1.6,0.2c0.8-0.7,0.8-1.7-0.2-2
		c-1.2-0.3-2,0.3-3.6,1.2s-2.2,1.2-5.4,0.6c-0.7-0.1-1.3-0.3-1.9-0.5c0.1-1.1,0.8-6.8,5.5-8.5c1.3-0.2,4.6,0.7,7,2
		c-1.6,0.2-2.4,1.5-2.4,1.5s1.3-0.5,3-0.3c0.9,0.1,1.5,0.5,1.8,0.8C93.3,86.7,93.3,87.9,92.9,88.8z M93.2,82.8
		c-1.1-0.9-2.5-1.6-4-2.2c0.9-1.6,2.8-4.5,5.1-5.7c0.9-0.5,1.8-0.7,2.6-0.8c0.2,0.9,0.2,2.7-0.6,5.1C95.9,80.8,94.7,82.2,93.2,82.8z
		 M101.8,81.9c-1.6,1.9-3.9,2.7-6.9,2.3c-0.1,0-0.3,0-0.4-0.1c0,0-0.1-0.1-0.1-0.1c1.7-0.9,3-2.5,3.6-4.3c0.8-2.5,0.8-4.4,0.6-5.6
		c1.8,0.2,3.5,0.8,5,1.1C103.8,77.4,103.3,80.1,101.8,81.9z M58.7,73.8c-4.8-1.1-8.2-0.4-10.8,0.8c-1.4-0.2-4.4-1-6-3.5
		c-0.5,1.3,1.3,3.5,4,4.6c-0.2,0.1-0.4,0.3-0.6,0.4c-1.7-0.2-5-0.8-7.6-3.4c0.1,1.9,2.9,4.2,5.8,4.7c-0.2,0.1-0.4,0.3-0.5,0.4
		c-2.3,0.8-7-0.9-7.6-1.3c-0.9,1.1,3.3,6.1,9.7,5.2c4.3-2.9,12.2-6.2,25.6,0.8C70.5,82.4,67,75.6,58.7,73.8z M46.2,70.6
		c0.6,0,4.9-3.5,10.9-3.5c6,0,8.7,5.2,9.4,4.7c0.6-0.4-1.9-5.9-9.2-6.2C49.4,65.4,46,70.1,46,70.1S45.6,70.7,46.2,70.6z"/>
</g>
</svg>
