<?xml version="1.0" encoding="utf-8"?>
<!-- Generator: Adobe Illustrator 22.1.0, SVG Export Plug-In . SVG Version: 6.00 Build 0)  -->
<svg version="1.1" id="illustration" xmlns="http://www.w3.org/2000/svg" xmlns:xlink="http://www.w3.org/1999/xlink" x="0px"
	 y="0px" viewBox="0 0 244.6 354.1" style="enable-background:new 0 0 244.6 354.1;" xml:space="preserve">
<style type="text/css">
	.st0{display:none;fill:#36140A;}
	.st1{display:none;}
	.st2{display:inline;fill:#FBC2A9;}
	.st3{fill:#F58220;}
	.st4{fill:#EF4123;}
	.st5{fill:#36140A;}
	.st6{fill:#FBC2A9;}
	.st7{fill:#FFFFFF;}
	.st8{fill:#20BEC6;}
	.st9{fill:#FFC20E;}
	.st10{fill:#A22C26;}
</style>
<g id="XMLID_131_">
	<path class="st0" d="M2225.2,119.3"/>
</g>
<g id="XMLID_231_">
	<g id="XMLID_233_" class="st1">
		<path id="XMLID_27_" class="st2" d="M65.6,348.9c-12.4,1.3-11.6,6.5,2.2,8.8c10.9,1.8,33.6,1.1,39.1-0.7c5.5-1.8,6.4,2,26.9,1.6
			s34.6-4.5,30.3-8.8c-4.3-4.3-32-3-39.1-2.3s-15.9,3-21.9,2C97.2,348.4,86.6,346.7,65.6,348.9z"/>
	</g>
	<g id="XMLID_225_">
		<g id="XMLID_599_">
			<path id="XMLID_217_" class="st3" d="M132.4,321.9v-53.3V268h0.6l6.3-0.1h0.6v0.6l0.2,52.9l0,0c-0.1,2.7,0.6,3.8,0.8,4.2
				c0.2,0.3,0.3,0.5,0.1,0.8c-0.8,1.8-1.7,4.3-1.9,7.2c-0.1,2.1,0.1,4.5,1.1,7l0.1,0.4l-0.3,0.3c-1,0.9-2,1.8-3,2.8s-2,2-3,3.1
				l-0.2,0.2h-0.3c-3.3-0.2-5.7-0.8-7.5-1.7c-2.6-1.2-3.7-2.9-4.3-4.1l-0.1-0.3l0.2-0.3c0.7-1,2.2-3.3,3.8-5.9
				c1.8-2.9,3.7-6.1,5.2-8.7c0.3-0.5,0.5-0.9,0.7-1.2l0,0c0.3-0.5,0.5-0.8,0.6-1.1c0.1-0.3,0.1-0.6,0.1-1.3
				C132.4,322.6,132.4,322.1,132.4,321.9L132.4,321.9L132.4,321.9z"/>
		</g>
		<g id="XMLID_381_">
			<path id="XMLID_215_" class="st3" d="M90.9,320.4l7.4-55.5l0.1-0.5h0.5l7.3,0.7l0.6,0.1l-0.1,0.6c-0.5,3.3-1,6.8-1.6,10.6
				c-1.7,11.3-3.7,24.7-5.8,37.6c-0.1,0.6-0.2,1.4-0.4,2.1c-0.5,2.5-0.9,4.8-0.8,6.9c0,1.2,0.4,1.8,0.7,2.2c0.3,0.5,0.6,0.8,0.3,1.5
				c-0.8,1.8-1.7,4.3-1.9,7.2c-0.1,2.1,0.1,4.5,1.1,7l0.1,0.4l-0.3,0.3c-1,0.9-2,1.8-3,2.8s-2,2-3,3.1l-0.2,0.2h-0.3
				c-3.3-0.2-5.7-0.8-7.5-1.7c-2.6-1.2-3.7-2.9-4.3-4.1l-0.1-0.3l0.2-0.3c0.8-1.1,2.5-3.7,4.3-6.6c1.9-3.1,4-6.7,5.4-9.1
				c0.7-1.2,0.8-2.1,1.1-4.6L90.9,320.4L90.9,320.4z"/>
		</g>
		<g id="XMLID_377_">
			<path id="XMLID_210_" class="st4" d="M82.2,346.1c1.7,1.1,4.1,2,7.5,2.4l1.1,0.1l-0.7,0.8c-0.2,0.3-0.5,0.5-0.7,0.8
				s-0.4,0.5-0.6,0.8l-0.1,0.1h-0.2c-1.7,0.5-5.1,0.8-8.9,0.7c-3.2-0.1-6.7-0.4-9.8-1.1h-0.2l-0.1-0.2c-0.3-0.4-0.4-1.6-0.1-2.8
				c0.2-0.8,0.6-1.7,1.3-2.4c1.3-1.3,3-1.7,4.7-2c1-0.2,2.1-0.4,2.9-0.8l0.5-0.2l0.3,0.5C79.6,343.8,80.6,345.1,82.2,346.1
				L82.2,346.1z M102.4,339.7c0.4-0.3,0.8-0.6,1.1-0.8l0.9-0.6v1.1l-0.5,12.2c0,0-2,0.8-3.4,0.1c0,0,0.7-9.2,0.5-10.5v-0.3l0.2-0.2
				C101.6,340.3,102,340,102.4,339.7L102.4,339.7z M98.4,333c0.3-2.7,1.2-4.9,1.9-6.4l0.3-0.5l0.5,0.3c1.8,1.1,3.2,2.7,3.8,4.5
				c0.6,1.7,0.5,3.6-0.5,5.5l-0.1,0.2l-0.1,0.1c-0.6,0.3-1.3,0.8-2,1.3s-1.5,1.1-2.3,1.8l-0.7,0.5l-0.3-0.8
				C98.4,337.1,98.2,334.9,98.4,333L98.4,333z"/>
		</g>
		<g id="XMLID_371_">
			<path id="XMLID_203_" class="st5" d="M87.4,325.1c-5.2,9.1-7.9,13.6-9.3,15c-0.7,0.7-1.9,0.9-3.3,1.2c-4.4,0.9-9.1,4.1-7.5,9.4
				c0.7,2.2,2.8,2.3,4.8,2.6c5.3,0.8,12.6,1.4,17.8-0.4c2.9-3.6,6.1-6.9,9.5-10c0.4,2.8,0.1,9.4,0.5,9.8s4.6,0.5,5.4-0.6l0.9-14.6
				c2.9-5.1,0.5-10-3.7-12.8c-0.1-0.1-1.6-1.1-1.7-1.1c-0.9-0.7-1.5-1.3-1.2-1.9l9.6-57.3l0.3-1.6l-1.6-0.1l-10.3-0.9l-1.4-0.1
				l-0.2,1.4l-7.3,58C88.5,323,88.3,323.5,87.4,325.1L87.4,325.1z M97.5,322.8c0.1,2.4,1.4,2.6,1,3.4c-1.5,3.1-3.1,8.5-0.8,14.7
				c-2,1.8-4.1,3.9-6,5.9c-7.8-0.4-10.4-3.5-11.2-5.4c1.7-2.3,7.1-11.1,9.7-15.8c0.8-1.4,0.9-2.3,1.3-5.2l7.4-55.5l7.3,0.7
				c-1.9,12.7-4.5,31-7.4,48.1C98.1,317.1,97.3,320.1,97.5,322.8L97.5,322.8z M99.6,339.2c-1.7-5.3-0.1-9.9,1.2-12.4
				c3.3,1.9,5,5.7,3.1,9.3C102.7,336.9,101.2,337.9,99.6,339.2L99.6,339.2z M101.5,341.1c0.8-0.6,1.5-1.2,2.2-1.7l-0.3,11.8
				c-0.9,0.7-2,0.3-2,0.3S101.9,343.8,101.5,341.1L101.5,341.1z M78.5,343c1.2,2.2,4.1,5.2,11.1,6c-0.5,0.5-0.9,1.1-1.3,1.6
				c-3.1,0.9-11.7,1.1-18.4-0.4c-0.4-0.5-0.4-2.9,1.1-4.5C72.9,343.8,76.2,344.2,78.5,343L78.5,343z"/>
		</g>
		<g id="XMLID_367_">
			<path id="XMLID_198_" class="st4" d="M124.3,346.1c1.7,1.1,4.1,2,7.5,2.4l1.1,0.1l-0.7,0.8c-0.2,0.3-0.5,0.5-0.7,0.8
				s-0.4,0.5-0.6,0.8l-0.1,0.1h-0.2c-1.7,0.5-5.1,0.8-8.9,0.7c-3.2-0.1-6.7-0.4-9.8-1.1h-0.2l-0.1-0.2c-0.3-0.4-0.4-1.6-0.1-2.8
				c0.2-0.8,0.6-1.7,1.3-2.4c1.3-1.3,3-1.7,4.7-2c1-0.2,2.1-0.4,2.9-0.8l0.5-0.2l0.3,0.5C121.7,343.8,122.7,345.1,124.3,346.1
				L124.3,346.1z M144.4,339.7c0.4-0.3,0.8-0.6,1.1-0.8l0.9-0.6v1.1v11.4v0.4l-0.3,0.2c-1.7,0.8-2.7,0-2.7,0
				c-0.2-1.6-0.1-8.8-0.3-10.2v-0.3l0.2-0.2C143.7,340.3,144.1,340,144.4,339.7L144.4,339.7z M140.5,333c0.3-2.7,1.2-4.9,1.9-6.4
				l0.3-0.5l0.5,0.3c1.8,1.1,3.2,2.7,3.8,4.5c0.6,1.7,0.5,3.6-0.5,5.5l-0.1,0.2l-0.1,0.1c-0.6,0.3-1.3,0.8-2,1.3s-1.5,1.1-2.3,1.8
				l-0.7,0.5l-0.3-0.8C140.5,337.1,140.3,334.9,140.5,333L140.5,333z"/>
		</g>
		<g id="XMLID_366_">
			<path id="XMLID_196_" class="st6" d="M90.7,247.8c-0.2,4.6,0.1,8.3,3.2,13.8c6.7,12.3,28-0.2,30.5-10.7
				C126.1,243.2,90.8,240.5,90.7,247.8L90.7,247.8z"/>
		</g>
		<g id="XMLID_360_">
			<path id="XMLID_189_" class="st5" d="M129.6,324.9c-5.3,9.3-8.1,13.9-9.5,15.3c-0.7,0.7-1.9,0.9-3.3,1.2
				c-4.4,0.9-9.1,4.1-7.5,9.4c0.7,2.2,2.8,2.3,4.8,2.6c5.3,0.8,12.6,1.4,17.8-0.4c2.9-3.6,6.1-6.9,9.5-10c0.4,2.8,0.5,9.4,0.5,9.4
				s3.5,1.4,5.6-0.5l0.7-14.2c2.9-5.1,0.5-10-3.7-12.8c-0.1-0.1-1.6-1.1-1.7-1.1c-0.8-0.6-1.2-0.9-1.3-1.8l0.7-54.8v-1.5h-1.5
				l-9.3,0.1h-1.5v1.5l0.4,53C130.4,323.1,130.3,323.7,129.6,324.9L129.6,324.9z M139.5,321.4c-0.2,3.7,1.1,4.6,1,4.8
				c-1.5,3.1-3.1,8.5-0.8,14.7c-2,1.8-4.1,3.9-6,5.9c-7.8-0.4-10.4-3.5-11.2-5.4c1.6-2.1,6.3-9.8,9.1-14.6c1.7-2.9,1.4-1.8,1.4-4.9
				v-53.3l6.3-0.1L139.5,321.4L139.5,321.4z M141.7,339.2c-1.7-5.3-0.1-9.9,1.2-12.4c3.3,1.9,5,5.7,3.1,9.3
				C144.8,336.9,143.3,337.9,141.7,339.2L141.7,339.2z M143.6,341.1c0.8-0.6,1.5-1.2,2.2-1.7l-0.3,11.4c-0.3,0.3-1.2,0.4-1.5,0
				C143.7,347.5,144,343.8,143.6,341.1L143.6,341.1z M120.6,343c1.2,2.2,4.1,5.2,11.1,6c-0.5,0.5-0.9,1.1-1.3,1.6
				c-3.1,0.9-11.7,1.1-18.4-0.4c-0.4-0.5-0.4-2.9,1.1-4.5C115,343.8,118.3,344.2,120.6,343L120.6,343z"/>
		</g>
		<g id="XMLID_359_">
			<path id="XMLID_187_" class="st7" d="M13.1,73.1c0.5,0.8,1.9,1.6,5.8,2.4s10.3,1.7,13.8,2s4.1,0.1,8.3-7.3s12.1-22.1,16-29.6
				s3.8-8,1.5-9.9c-2.4-1.9-7.1-5.4-9.7-7.2c-2.6-1.9-3-2.2-3.9-2.5s-2.3-0.7-3.1-0.8c-0.8-0.1-1.1,0-5.7,8.4s-13.6,25.2-18.3,34
				C13,71.5,12.6,72.3,13.1,73.1L13.1,73.1z"/>
		</g>
		<g id="XMLID_358_">
			<path id="XMLID_185_" class="st8" d="M23.8,64.3l22-39l0,0v-0.1l0,0c0.6-1.1,0.9-1.6,1.6-1.6c0.5,0,1,0.3,1.8,0.9
				c0.1,0.1,0.2,0.2,0.4,0.3c1.3,0.9,2.9,2.1,4.5,3.3c1.5,1.1,3,2.2,4,3c0.5,0.4,0.8,0.7,1.1,1c0.3,0.4,0.4,0.8,0.4,1.3
				c-0.1,0.6-0.4,1.4-0.9,2.6c-0.5,1.1-1.2,2.5-2.2,4.3c-1,2-2.4,4.5-3.8,7.3c-1.5,2.7-3,5.7-4.6,8.6c-1.5,2.7-2.9,5.4-4.2,7.8
				c-1.2,2.2-2.3,4.2-3.3,5.9c-1.9,3.3-2.1,3.2-4.4,2.6H36l0,0l-11.1-3.8c-1.2-0.4-1.8-0.9-1.9-1.7C22.7,66.4,23,65.5,23.8,64.3
				L23.8,64.3L23.8,64.3z"/>
		</g>
		<g id="XMLID_351_">
			<path id="XMLID_177_" class="st5" d="M15.2,73.3c1.4,0.6,1.2,0.6,1.9-0.6l27.7-49.1c0.6-1.1,0.7-1.1-0.6-1.6
				c-0.5-0.2-1.1-0.3-1.6-0.4c-1.1-0.2-0.9-0.3-1.4,0.5c-0.7,1-1.8,3-4.1,7.2c-1.8,3.4-4.5,8.4-7.4,13.7
				c-4.2,7.8-8.3,15.5-10.9,20.3c-2.3,4.4-3.6,6.8-4.2,8.1C14,72.6,13.8,72.6,15.2,73.3L15.2,73.3z M40,69.7c2-3.4,4.7-8.5,7.5-13.7
				c3.2-5.9,5.3-9.8,7.3-13.8c1.9-3.7,2.8-5.6,3-6.7c0.1-0.7-0.4-1.1-1.2-1.8c-2-1.6-5.8-4.4-8.4-6.3c-2.1-1.5-1.9-1.6-3.1,0.3
				c-7.3,13-13.6,23.9-20.9,36.9c-1.3,2.2-1.2,3,0.7,3.6c3.7,1.3,7.4,2.5,11.1,3.8C38.2,72.5,38.3,72.7,40,69.7L40,69.7z M14.3,75.3
				c-1.1-0.5-1.8-1.1-2.1-1.6c-0.5-0.7-0.6-1.4,0.3-3.3c0.6-1.4,1.9-3.8,4.3-8.3c2.9-5.4,7.2-13.4,10.9-20.3
				c2.7-5.1,5.4-10,7.4-13.7c2.3-4.3,3.6-6.4,4.3-7.5c1.1-1.6,1.7-1.6,2.5-1.5c0.5,0.1,1.1,0.2,1.7,0.4l0,0c0.6,0.2,1.2,0.3,1.7,0.5
				c1,0.4,1.5,0.7,3.9,2.5l0.2,0.2l0.4,0.3c2.6,1.9,7,5.1,9.4,7c1.5,1.2,2.3,2,2,3.9C61,35.4,60,37.5,58,41.3
				c-2.1,4-5.3,10-8.4,15.9C46.8,62.4,44,67.4,42,70.9c-2.2,3.8-3.4,5.8-4.7,6.9c-1.5,1.2-2.7,1.2-4.7,1c-1.9-0.2-4.7-0.5-7.4-0.9
				c-2.3-0.3-4.7-0.7-6.5-1.1C16.7,76.2,15.3,75.8,14.3,75.3L14.3,75.3z M69.5,33.6c-0.4,1.9,4.6,2,9,1.5s4.8-1,4.2-2
				C82.2,31.9,69.8,32.2,69.5,33.6z M69.2,39.7c-0.5,1,8.6,6.3,10.2,4.9c0.8-0.7-1.5-2.3-4.2-3.6C72.6,39.8,69.6,38.9,69.2,39.7z
				 M66.6,45.6c-0.9,1.4,5.2,8.7,7.4,7.9C76.2,52.7,67.6,44.1,66.6,45.6z"/>
		</g>
		<g id="XMLID_348_">
			<path id="XMLID_173_" class="st7" d="M36.9,58.7c4.2,2.6,10.6-2.8,9.3-9.6c2.2-1.7,3.3-5.1,1.3-6.5c-1.3-0.8-3.9-0.2-5.2,2.8
				c-0.2,0.5-0.3,0.9-0.3,1.3c-0.5,0-1.1,0.1-1.8,0.4C35.6,49.3,33.4,56.5,36.9,58.7L36.9,58.7z M48,40.4c-0.4,0.2-0.8,0.1-1.3-0.3
				c-0.4-0.5-0.8-1.3-0.9-2.2c-0.1-0.9,0-1.9,0.3-2.5s0.8-0.8,1.3-0.6s0.9,0.8,1.2,1.6s0.3,1.7,0.2,2.5C48.7,39.6,48.4,40.2,48,40.4
				L48,40.4z"/>
		</g>
		<g id="XMLID_347_">
			<path id="XMLID_171_" class="st7" d="M71.8,138.5c1.8,0.1,3.4,0,4.8-0.1c3.2-0.3,5.1-1,6.4-2.3c1.3-1.4,2.1-3.4,1.9-5
				s-1.2-2.8-3.9-4.1c-1.1-0.5-2.4-1.1-3.8-1.7c-0.5-0.2-0.9-0.4-1.4-0.6s-0.9-0.4-1.4-0.6c-1.3-0.5-2.6-1.1-3.8-1.7
				c-3.7-1.8-6.8-3.9-10.1-6.6c-3.2-2.7-6.5-6-8.7-8.9s-3.3-5.3-4.2-8.2c-0.9-2.8-1.5-6.1-1.7-10s-0.1-8.5-0.1-11
				c0-2.6-0.1-3.1-1.5-4.5c-1.5-1.5-4.4-3.9-6.7-6.2c-2.3-2.3-4-4.5-4.9-5.5c-0.9-1-1.1-1-1.4-0.1s-0.8,2.5-0.9,4.2l1,8.3l3.2,4.1
				l-0.3,1.6c-0.3-0.3-0.7-0.5-0.9-0.8c-0.2,0-0.4,0-0.7-0.1c-1.9-0.2-4.7-0.5-7.4-0.9c-2.3-0.3-4.7-0.7-6.5-1.1
				c-2-0.4-3.4-0.9-4.4-1.3c-1.1-0.5-1.8-1.1-2.1-1.6c-0.4-0.7-0.6-1.3,0.2-3c-0.6,0.1-1.2,0.3-1.8,0.4c0-0.2-0.1-0.3-0.1-0.4
				c-0.2-0.8,4.7-1.3,5.2-1.5c6.4-3.5,7.3-4,3.2-5.9c-1-0.3-2.2-0.6-3.5-0.8c-2.4-0.4-4.9-0.6-6.6-0.5C8,62,7.5,62.2,7.1,62.4
				c-0.7,0.4-1.3,1-1.9,2.1c-1.1,1.8-2.5,4.6-3.1,6.4s-0.5,2.4,0.8,6.4C4.1,81.2,6.6,88.7,9.6,95c3,6.4,6.7,11.7,10.7,16.7
				c4.1,4.9,8.6,9.5,13.3,13s9.5,6,14.6,8.1s10.5,3.9,15.5,4.8c1.7,0.3,3.3,0.5,4.9,0.7c0.5,0.1,1.1,0.1,1.6,0.1
				C70.8,138.4,71.3,138.5,71.8,138.5L71.8,138.5z"/>
		</g>
		<g id="XMLID_346_">
			<path id="XMLID_169_" class="st5" d="M18.3,66.7c1.9-1,1.9-1.5-0.1-2.1c-0.9-0.3-2.1-0.5-3.3-0.7s-2.4-0.4-3.6-0.4
				c-1-0.1-1.9-0.1-2.6,0c-0.6,0.1-1,0.2-1.3,0.4l0,0c-0.4,0.3-0.7,0.7-1.2,1.4c-0.5,0.8-1.1,1.9-1.7,3c-0.5,1.1-1,2.2-1.3,3.1
				c0,0.6-0.1,1,0,1.6c0.1,0.7,0.5,1.8,1.1,3.8s1.6,4.8,2.7,7.9s2.5,6.5,4,9.7c2.8,5.9,6.4,11.3,10.5,16.4
				c3.8,4.7,8.2,9.1,13.1,12.7c4.4,3.3,9.2,5.8,14.3,7.9c6.9,2.8,14.2,5.1,21.6,5.5c2.3,0.1,4.3,0.1,6,0c1.8-0.2,4.1-0.5,5.4-1.9
				c0.5-0.5,0.9-1.2,1.2-1.9l0,0c0.3-0.7,0.4-1.4,0.3-1.9c0-0.5-0.2-0.9-0.6-1.3c-0.5-0.5-1.3-1.1-2.4-1.6c-1.2-0.6-2.8-1.3-4.6-2
				c-1.9-0.8-3.9-1.6-5.8-2.6c-1.9-0.9-3.7-1.9-5.4-3c-3.6-2.3-6.9-5.2-9.9-8.3c-2.6-2.7-5.1-5.6-6.7-8.9c-1.4-2.8-2.3-6-2.8-9.1
				c-1-5.5-0.8-11.1-0.7-16.7c0-0.6,0-1.6-0.1-2.2c-0.1-0.4-0.4-0.7-1-1.2c-0.6-0.6-1.5-1.4-2.5-2.3c-1.4-1.2-2.9-2.6-4.2-3.9
				c-1.5-1.5-2.9-3.1-4.3-4.8c-0.6,2.5-0.6,4.5,0,7c0.9,3.9,2.1,6.3,3.1,7.8c2,3,2.7,4.5-1.1,1.5c-2.9-2.3-4.1-5.1-4.9-8.6
				c-0.4-1.8-0.6-3.7-0.5-5.5c0.1-1.5,0.5-3.2,1-4.6c0.4-1.1,0.8-1.7,1.9-1.7c0.9,0,1.5,0.7,2.1,1.3c0.3,0.4,0.6,0.7,0.9,1.1
				c0.9,1.1,2.3,2.7,3.9,4.4c1.4,1.4,2.8,2.7,4.1,3.8c1,0.9,2,1.8,2.6,2.4c0.9,0.9,1.4,1.6,1.7,2.5c0.3,0.8,0.3,1.7,0.3,3.2
				c0,5.4-0.2,10.8,0.7,16.2c0.5,2.8,1.3,5.7,2.5,8.2c1.5,3,3.9,5.7,6.2,8.2c4.3,4.4,8.9,8,14.4,10.7c1.8,0.9,3.8,1.7,5.7,2.5
				c1.8,0.7,3.4,1.4,4.8,2.1c2.2,1.1,4.4,2.6,4.7,5.3c0.2,2.2-0.8,4.6-2.3,6.2c-1.9,2-4.7,2.6-7.3,2.8c-1.8,0.2-4,0.2-6.4,0
				c-7.9-0.5-15.3-2.8-22.6-5.8c-5.3-2.2-10.3-4.8-15-8.3c-5-3.8-9.6-8.4-13.6-13.3c-4.3-5.3-8-10.8-10.9-17
				c-1.7-3.2-3.1-6.7-4.3-9.9s-2.1-6-2.8-8.1s-1.1-3.3-1.2-4.3c-0.2-1.2,0-1.9,0.4-3.1c0.3-0.9,0.9-2.2,1.5-3.4
				c0.6-1.2,1.2-2.4,1.8-3.3c1.2-1.9,2.4-3,4.7-3.2c0.9-0.1,2-0.1,3.1,0c1.2,0.1,2.6,0.3,3.9,0.5c1.8,0.3,5.2,1,6.5,2.3
				c1.1,1.1,1,2.6,0.1,3.8c-2.2,3-7.6,3-11.7,4.1c-1.6,0.4-3.7,0.7-0.8-1.2C12,68.4,15.1,68.5,18.3,66.7L18.3,66.7z"/>
		</g>
		<g id="XMLID_343_">
			<path id="XMLID_30_" d="M18.8,63.3v-0.2c1.5-0.2,3-0.4,4.1-0.8c1.1-0.4,1.9-0.9,2.7-1.8c0.8-0.9,1.7-2.1,2.3-3.2
				c0.5-0.9,0.8-1.8,1-2.8c0.2-0.8,0.2-1.6-1-1.9c-1.1-0.3-3.1-0.3-5.5-0.2c-0.5,0-1,0-1.5,0c-0.9,0-1.7,0-2.6,0
				c-2.3,0-4.6,0-6.2,0.1c-2.2,0.2-2.9,0.5-3.5,1.2c-0.6,0.6-1.1,1.5-1.5,2.7c-0.3,1.1-0.5,2.2-0.5,3.3c0,1,0.2,1.9,0.4,2.8H6.8h0.1
				H6.8c-0.2-0.9-0.4-1.8-0.4-2.8c0-1.1,0.2-2.2,0.5-3.3c0.4-1.2,0.9-2.1,1.5-2.7c0.6-0.7,1.4-1,3.7-1.2c0.1,0,0.3,0,0.4,0
				c0.2-1.6,0.4-3.2,0.9-4.7c0.4-1.3,1.1-2.6,1.8-3.6c0.7-0.9,1.2-1.3,3.7-1.7c2.1-0.3,5.6-0.5,8.7-0.7c0.5,0,1.1-0.1,1.6-0.1
				l1.1-0.1c2.9-0.2,5-0.3,6.2-0.1c0.6,0.1,0.9,0.3,1.1,0.6c0.2,0.4,0.1,0.9-0.1,1.2c-0.3,0.8-1,1.7-1.6,2.6c-0.7,1-1.4,1.8-2.4,2.8
				s-2.5,2-3.7,2.7c-1,0.6-1.8,0.9-2.5,1.1c0.2,0,0.5,0.1,0.6,0.1c1.3,0.4,1.3,1.2,1.1,2.1c-0.2,1-0.5,1.9-1.1,2.8
				c-0.6,1.1-1.5,2.3-2.4,3.2c-0.9,1-1.7,1.5-2.8,1.9C21.8,62.9,20.3,63.1,18.8,63.3z M35,41.4c-1.2,0-2.7,0.1-4.6,0.2l-1.1,0.1
				c-0.5,0-1,0.1-1.6,0.1c-3.1,0.2-6.6,0.4-8.7,0.7c-2.4,0.3-3,0.8-3.6,1.6c-0.8,1-1.4,2.3-1.8,3.5c-0.5,1.4-0.7,3-0.8,4.6
				c1.5-0.1,3.6-0.1,5.6-0.1c0.9,0,1.8,0,2.6,0c0.5,0,1,0,1.5,0c1.8,0,3.4,0,4.5,0.1c0.8-0.3,1.7-0.5,2.8-1.2
				c1.2-0.7,2.6-1.7,3.6-2.7c1-0.9,1.7-1.8,2.4-2.7s1.3-1.8,1.6-2.6c0.2-0.5,0.2-0.8,0.1-1c-0.1-0.2-0.5-0.4-1-0.5
				C36.2,41.5,35.6,41.4,35,41.4z"/>
		</g>
		<g id="XMLID_342_">
			<path id="XMLID_163_" class="st7" d="M22.9,62.4c1.1-0.4,1.9-1,2.8-1.9c0.1-0.1,0.2-0.2,0.3-0.4c0.7-0.9,1.5-1.9,2-2.9
				c0.6-1.1,0.9-2,1-2.8c0.2-0.8,0.2-1.6-1-2c-0.3-0.1-0.6-0.1-1-0.2c-1.4-0.1-3.5-0.1-6-0.1c-2.9,0-6.1,0-8.3,0.1
				c-0.2,0-0.3,0-0.5,0c-2.2,0.2-3,0.5-3.6,1.2S7.5,55,7.1,56.1c-0.3,1.1-0.5,2.3-0.5,3.3s0.2,1.9,0.4,2.8c0.5-0.2,1-0.4,1.6-0.4
				c1.7-0.2,4.2,0.1,6.6,0.5c1.3,0.2,2.5,0.5,3.5,0.8C20.3,63,21.8,62.8,22.9,62.4L22.9,62.4z"/>
		</g>
		<g id="XMLID_339_">
			<path id="XMLID_159_" class="st5" d="M27.5,55.4c0.4-1.2,0.5-1.5-0.6-1.5c-3.7-0.2-14.9,0-16.6,0.4c-1.8,0.6-2.4,4.6-2.1,6.3
				c0.1,0,0.2,0,0.3,0c0.9-0.1,2-0.1,3.1,0c1.2,0.1,2.6,0.3,3.9,0.5c0.7,0.1,1.3,0.2,2,0.4c0.5,0.1,0.9,0.2,1.4,0.3
				C22.9,61.1,26,59.5,27.5,55.4L27.5,55.4z M25.3,62.9c-0.6,0.4-1.2,0.7-1.9,0.9c-0.6,0.2-1.4,0.4-2.2,0.5
				c-0.8,0.1-1.5,0.3-2.3,0.4h-0.3l-0.3-0.1c-0.4-0.1-0.9-0.3-1.5-0.4S15.6,64,15,63.8c-1.2-0.2-2.4-0.4-3.6-0.4
				c-1-0.1-1.9-0.1-2.6,0c-0.2,0-0.5,0.1-0.7,0.1c-0.2,0-0.3,0.1-0.4,0.2L6,64.6l-0.4-1.9l0,0c-0.2-1-0.4-1.9-0.5-3.1
				c0-0.6,0-1.3,0.1-1.9c0.1-0.6,0.2-1.2,0.4-1.9c0.2-0.7,0.5-1.3,0.8-1.8c0.3-0.6,0.7-1.1,1.1-1.5c0.5-0.5,1-0.9,1.8-1.2
				c0.7-0.2,1.5-0.4,2.8-0.5l0,0h0.2l0,0h0.2l0,0c1.5-0.1,3.7-0.1,5.8-0.1c0.9,0,1.8,0,2.6,0c0.5,0,1,0,1.5,0c1.8,0,3.4,0,4.6,0.1
				l0,0c0.2,0,0.5,0.1,0.7,0.1s0.4,0.1,0.6,0.1l0,0c1.2,0.3,1.8,1,2.1,1.8c0.2,0.7,0.2,1.3,0,2c-0.1,0.5-0.2,1-0.4,1.5
				c-0.2,0.5-0.4,1.1-0.8,1.7c-0.3,0.5-0.6,1.1-1,1.6l0,0c-0.4,0.6-0.8,1.1-1.2,1.5c-0.1,0.1,0,0-0.2,0.2l0,0l-0.2,0.2l0,0
				C26.3,62.1,25.8,62.5,25.3,62.9L25.3,62.9z"/>
		</g>
		<g id="XMLID_338_">
			<path id="XMLID_157_" class="st7" d="M21.1,52.3c2.4,0,4.5-0.1,6,0.1c0.8-0.3,1.7-0.5,2.8-1.2c1.1-0.7,2.6-1.7,3.7-2.7
				c1.1-1,1.7-1.9,2.4-2.7c0.7-0.9,1.3-1.8,1.6-2.6s0.3-1.4-0.9-1.7c-1.3-0.2-3.8,0-7.2,0.2s-7.8,0.5-10.3,0.8s-3,0.8-3.7,1.6
				c-0.6,0.9-1.4,2.1-1.8,3.6c-0.5,1.4-0.7,3.1-0.9,4.7C14.9,52.2,18.2,52.3,21.1,52.3L21.1,52.3z"/>
		</g>
		<g id="XMLID_335_">
			<path id="XMLID_153_" class="st5" d="M26.8,50.8c0.3-0.1,0.6-0.2,0.9-0.3c0.4-0.2,0.9-0.4,1.3-0.7c0.5-0.3,1.1-0.7,1.8-1.2
				c1-0.8,3.7-2.8,4.6-4.1c1.3-2,0.6-1.8-2.4-1.6c-4.5,0.2-9.5,0.4-13.7,1c-2.2,0.3-2.6,0.5-3.6,2.5c-0.6,1.2-0.9,2.4-1.2,3.7
				c0,0.2-0.1,0.4-0.1,0.6C18.1,50.7,23.3,50.5,26.8,50.8L26.8,50.8z M22.5,53.8c-0.5,0-1,0-1.5,0c-0.9,0-1.7,0-2.6,0
				c-2.1,0-4.1,0-5.6,0.1L11,54l0.2-1.8c0.1-0.8,0.2-1.6,0.3-2.5c0.1-0.8,0.3-1.7,0.6-2.5c0.2-0.8,0.5-1.5,0.9-2.1
				c0.4-0.7,0.8-1.4,1.2-1.9c0.5-0.6,0.9-1.1,1.7-1.5c0.7-0.3,1.6-0.6,3-0.8c2.2-0.3,5.7-0.5,8.8-0.7l1.6-0.1l1-0.1
				c3-0.2,5.2-0.3,6.5-0.1c1.2,0.2,1.9,0.8,2.2,1.6c0.3,0.7,0.2,1.5-0.1,2.2c-0.2,0.5-0.5,1-0.8,1.5c-0.3,0.4-0.6,0.9-1,1.4
				s-0.7,1-1.1,1.4c-0.4,0.5-0.9,1-1.5,1.5s-1.2,1.1-1.9,1.5c-0.7,0.5-1.4,1-2,1.3c-0.7,0.4-1.2,0.6-1.7,0.8s-1,0.3-1.4,0.5
				l-0.3,0.1h-0.3C25.8,53.7,24.3,53.8,22.5,53.8L22.5,53.8z"/>
		</g>
		<g id="XMLID_334_">
			<path id="XMLID_151_" class="st6" d="M8.4,71.4c-2.2,6.1,27.1,21.6,27,9c-0.3-0.2-0.7-0.5-1.1-0.8c-0.3-0.3-0.7-0.5-0.9-0.8
				c-0.2,0-0.4,0-0.7-0.1c-1.9-0.2-4.7-0.5-7.4-0.9c-2.3-0.3-4.7-0.7-6.5-1.1c-2-0.4-3.4-0.9-4.4-1.3c-1.1-0.5-1.8-1.1-2.1-1.6
				c-0.4-0.7-0.6-1.3,0.2-3c-0.6,0.1-1.2,0.3-1.8,0.4l0,0C9.7,71.3,8.7,71.5,8.4,71.4L8.4,71.4z"/>
		</g>
		<g id="XMLID_333_">
			<path id="XMLID_149_" class="st5" d="M100.7,264.7c7,1.7,16.9-5.7,21.5-10.2c1.3-1.3,1.9-0.8,1,0.7c-9.1,14.5-32.9,21-33.4-4.7
				c0-1.9,0-3.2,0.9-0.1C92.5,256.4,95.3,263.4,100.7,264.7L100.7,264.7z"/>
		</g>
		<g id="XMLID_332_">
			<path id="XMLID_147_" class="st7" d="M124.7,51.1c-16.7,14.1-41.4,49.2-57,94.3c-3.6,10.4-5.6,21.9-6.4,33.9
				c-7,100.1,113,114.8,146.7,34.7c-56.4-25-37.4-77-18.6-125c6.1-15.6-1-33.1-8.8-39.4C166.2,38,139.3,38.8,124.7,51.1L124.7,51.1z
				"/>
		</g>
		<g id="XMLID_256_">
			<path id="XMLID_143_" class="st6" d="M140.8,257.4c6.6-3.1,38-16.8,52.1-19.1c4.3-4.9,8.2-10.6,11.5-16.9
				c-0.1-3.3-0.4-5.7-0.4-5.7s-79.4-0.5-83.5-0.3s-28.3,12.2-30.6,13.8c-1.8,1.2-8.8,7.5-12,10.9c11.4,13.9,27.3,22.2,44.3,24.7
				c1.1,0.1,2,0.1,2.6,0c-1.5-0.5-1.1-2.7-1.1-2.7S131.1,261.9,140.8,257.4z"/>
		</g>
		<g id="XMLID_255_">
			<path id="XMLID_139_" class="st6" d="M155.7,85.5c-0.3,1.9-2.2,7.4-3,8.3c1.7,1.7,6.8,7.2,10.4,9.4
				C163.7,97.8,162.9,90.3,155.7,85.5z M176.5,75.3c-0.7-6.6-1.2-13.2-7.3-19.2c-8.7-8.4-21.6-8.8-27.6-7.8c1.1,0.3,2.1,0.7,3.1,1
				c3.2,0.9,10.8,3.3,15.6,8.2c6.3,6.3,7.8,16.5,8.2,25.7c0.4,8.7,2,23.8,12.9,29.8c1.3-4.9,2.9-10.1,4.3-14.3
				C180.6,94.6,177.2,82,176.5,75.3z"/>
		</g>
		<g id="XMLID_310_">
			<path id="XMLID_135_" class="st5" d="M125.4,52.3c-9,7.6-20.2,21.2-31.1,39.3C85,107,75.9,125.5,68.8,146
				c-1.8,5.1-3.2,10.5-4.2,16.1s-1.7,11.4-2.1,17.4c-2.1,30,5.8,53.2,20.9,67.3c9,8.4,21.7,13,33.5,15.6c11.9,2.6,24.5,2.3,36.6-1.1
				c21.4-5.9,41.2-21.3,52.2-46.4c-27.8-12.8-37.1-32.3-37-54.7c0.1-22.4,9.5-47.5,19-71.6c2.6-6.7,2.7-13.9,1.3-20.2
				c-1.7-7.7-5.6-14.2-9.6-17.5c-6.9-5.6-16.9-8.2-26.8-8C142.5,43.2,132.4,46.4,125.4,52.3L125.4,52.3z M91.6,90.1
				c11.1-18.4,22.6-32.3,31.8-40.1c7.6-6.4,18.3-9.8,29-10.1s21.3,2.6,28.8,8.6c4.5,3.6,8.8,10.8,10.7,19.2c1.5,6.9,1.5,14.6-1.4,22
				c-9.4,23.8-18.8,48.7-18.8,70.5c0,21.5,9.1,40.3,36.6,52.5l1.4,0.6l-0.6,1.4c-11.3,26.9-32.1,43.2-54.8,49.5
				c-12.6,3.5-25.7,3.8-38,1.1c-12.4-2.7-23.9-8.5-33.4-17.4c-15.7-14.7-25.6-37.6-23.4-68.6c0.4-6.1,1.1-12,2.2-17.7
				c1.1-5.7,2.5-11.3,4.3-16.6C73.2,124.2,82.3,105.6,91.6,90.1L91.6,90.1z"/>
		</g>
		<g id="XMLID_309_">
			<path id="XMLID_133_" class="st7" d="M124.3,263c0.9,1.7,2.1,3.4,3.8,5.4c8.8,10.1,25.5-4.7,27.3-15.4c-9,3.1-21.8,8.3-30.7,9.9
				L124.3,263L124.3,263z"/>
		</g>
		<g id="XMLID_308_">
			<path id="XMLID_130_" class="st3" d="M135.6,47.2c12.7,0.6,23.2-0.8,32.6,8.1c9.9,9.3,7.5,21.1,11.6,33.3
				c2.8,8.5,7.1,15,16.8,11.9c-1.9-1.4-4.1-3.6-3.6-7.5c1.3-9.6,12.2-16.2,15.2-25.7c4-12.7-0.6-23.3-14.6-22.9
				c4.2-9.1,2.9-20.2-2.5-26.9c-5.1-6.4-16.4-8.8-25.1-1.6c-9.8-20.3-51.9-21.1-51.5,10.9C114.7,36.9,122.4,46.5,135.6,47.2
				L135.6,47.2z"/>
		</g>
		<g id="XMLID_307_">
			<path id="XMLID_128_" class="st4" d="M122.7,26.5c0.1,7.8,3.9,15.1,8.9,18.3c0.3,0.2,2.4,1.5,2.8,1.7c3,0.5,5,0.5,8,0.6
				c10.3,0.2,18,0.3,26.3,8.2c7,6.6,7.3,13,8.5,21.1c0.6,3.8,2.2,9.5,3.4,13.4c1.7,5,6.6,11.8,14.5,11.1c-3.4-4-1.1-11.5,2.6-18.3
				c13.3-24.3,1.3-33-11.8-30c5.6-13,4.8-31.5-8.8-31.3c-3.9,0-8.6,2.5-11.8,8.4c-0.9-6.1-6-12.9-10-15.6
				C139.2,3,122.5,12.6,122.7,26.5L122.7,26.5z"/>
		</g>
		<g id="XMLID_306_">
			<path id="XMLID_126_" class="st5" d="M193.6,42.9c9.7-0.3,17.2,5.2,17.5,15.5c0.2,8.7-3.9,15.2-9.2,21.7
				c-3.7,4.6-11.4,13.5-5.1,18.7c1.4,1.2,0.7,3.1-0.7,3.4c-15.1,4.1-18.7-14.4-20.4-25.3c-1.2-7.5-2.3-14.6-8.5-20.5
				c-8.9-8.4-20.5-7.1-31.7-7.7c-12.1-0.6-22.4-9.4-22.5-21.9c-0.1-12.6,6-20.5,14.3-24.2c13.4-6,33.2-1.3,40,12.5
				c1.9,3.8,0.6,7.3-0.8,8.4C165.4,6,142.6-0.9,128.6,5.3c-12.9,5.8-17.2,24.6-6.8,34.6c5.6,5.5,12.7,5.7,20,5.9
				c10.3,0.2,19.2,0.5,27.5,8.3c7,6.6,8.2,14.1,9.5,22.2c1.2,7.8,3.5,24.7,14.7,23.2c-8.6-10.1,10.3-23.6,13.3-32.8
				c2.4-7.5,2.1-17.3-6.8-20.1c-1.8-0.6-3.9-0.8-6.3-0.8L193.6,42.9L193.6,42.9z"/>
		</g>
		<g id="XMLID_305_">
			<path id="XMLID_124_" class="st5" d="M165.1,14.7c0.2-0.1,0.3-0.2,0.4-0.3c4.6-3.7,9.9-4.9,14.6-4.4c4.8,0.5,9.2,2.9,12,6.2l0,0
				c0.1,0.1,0.2,0.2,0.2,0.3c3.5,4.4,5.4,10.6,5.3,17c-0.1,3.7-0.8,7.5-2.4,11c-1.7,3.9-4.6,4.5-6,4.1c3.5-4.4,5.2-9.9,5.3-15.2
				c0.1-5.7-1.5-11.1-4.6-15c-0.1-0.1-0.1-0.2-0.2-0.2l0,0c-2.3-2.8-6-4.7-10-5.1c-4.1-0.5-8.5,0.6-12.4,3.7
				c-0.2,0.1-0.3,0.2-0.3,0.3L165.1,14.7L165.1,14.7z"/>
		</g>
		<g id="XMLID_304_">
			<path id="XMLID_122_" class="st5" d="M114.2,61.7c5.2,1.8,8.4,6.8,8,8c-0.5,1.2-1.9,2.1-2.2,1.2c-3.1-6.8-7.8-6.9-7.8-6.9
				L114.2,61.7z"/>
		</g>
		<g id="XMLID_303_">
			<path id="XMLID_120_" class="st6" d="M135.9,92.7c1.9-7.9,9.7-10.7,14.6-9.4c-3.1,1.5-2.9,5.7-3.6,8.7
				C143,91.8,138,92,135.9,92.7L135.9,92.7z"/>
		</g>
		<g id="XMLID_302_">
			<path id="XMLID_118_" class="st8" d="M141.8,92.5c2.9,0,5-1.3,6.2,1.1c0.5,0.9,1,2.7,1,3.8c0,4-3.2,7.2-7.2,7.2s-7.2-3.2-7.2-7.2
				c0-1.5,0.1-3.1,1-4.3C136.2,92.3,139.4,92.5,141.8,92.5L141.8,92.5z"/>
		</g>
		<g id="XMLID_299_">
			<path id="XMLID_114_" class="st5" d="M141.8,91.4c0.7,0,1.5-0.1,2.1-0.2c2.2-0.3,3.9-0.6,5.1,1.9c0.3,0.6,0.6,1.4,0.8,2.3
				c0.2,0.7,0.3,1.5,0.3,2c0,2.3-0.9,4.4-2.4,5.9s-3.6,2.4-5.9,2.4s-4.4-0.9-5.9-2.4s-2.4-3.6-2.4-5.9c0-0.8,0-1.7,0.2-2.5
				c0.2-0.9,0.5-1.7,1-2.4c0.8-1.2,3.5-1.1,6-1.1C140.8,91.3,141,91.4,141.8,91.4L141.8,91.4z M144.2,93.4c-0.7,0.1-1.5,0.2-2.4,0.2
				c-0.1,0-0.5,0-1.1,0c-1.9,0-4,0-4.2,0.2c-0.3,0.4-0.5,1-0.6,1.5c-0.1,0.6-0.1,1.3-0.1,2.1c0,1.7,0.7,3.2,1.8,4.3
				c1.1,1.1,2.6,1.8,4.3,1.8s3.2-0.7,4.3-1.8c1.1-1.1,1.8-2.6,1.8-4.3c0-0.4-0.1-0.9-0.2-1.5c-0.2-0.7-0.5-1.4-0.7-1.9
				C146.5,93.1,145.5,93.2,144.2,93.4L144.2,93.4z"/>
		</g>
		<g id="XMLID_295_">
			<path id="XMLID_109_" class="st5" d="M149.3,117.2c0,1.8,2.6,3.3,2.9,0.7C152.4,116,149.3,114.8,149.3,117.2L149.3,117.2z
				 M171.6,103.2c-2.3,0.6-7.1,0.2-8.4-1.8c3.2,0.8,6.7-0.6,7.7-2.5c-2.2,0.9-7.6,2.1-9.4-0.2c3.4,0.1,5.5-2.2,5.5-3.8
				c-2.8,1.9-5.9,2.9-7,1.7c-6.8-7.4-20.8-8.5-28.3-2.5c17.3-1.5,24.2,5.4,27.5,10.1C165.3,107.9,172,104.7,171.6,103.2L171.6,103.2
				z M169.5,80.8c0.4-1.2-1.7-7.1-5.7-9.1s-14.6-1.7-16-1.7c-1.3,0-0.5,2.1,1.6,2.6s8.6,1,11.3,1.1
				C165.6,73.8,169.5,80.8,169.5,80.8z"/>
		</g>
		<g id="XMLID_294_">
			<path id="XMLID_107_" class="st7" d="M114.3,89.7c0,0,4.1-9.7-1.1-15.5c-3.3-3.4-10.2-3.1-13.5,2c-2.7,4.1-3.5,13.7,6.3,15.6
				C111.8,92.8,114.3,89.7,114.3,89.7L114.3,89.7z"/>
		</g>
		<g id="XMLID_293_">
			<path id="XMLID_105_" class="st6" d="M108.5,72.5c0,0,0.1,4-3.8,4.4s-5.4-0.5-5.4-0.5S101.5,71.3,108.5,72.5L108.5,72.5z"/>
		</g>
		<g id="XMLID_292_">
			<path id="XMLID_103_" class="st6" d="M112.8,74.7c0,0-2.7,2.2-1.7,4.2s3.6,6,3.7,7.5C116.5,83.2,115.6,77.6,112.8,74.7
				L112.8,74.7z"/>
		</g>
		<g id="XMLID_291_">
			<path id="XMLID_101_" class="st8" d="M108.4,78.3c0.4,1.2,0.1,2.9-0.3,4.3c-1,3.1-3.9,4.9-6.5,4.1s-4-4-3-7.1
				c0.3-0.9,0.6-2.5,1.4-2.6C101.1,76.8,108.1,77.5,108.4,78.3L108.4,78.3z"/>
		</g>
		<g id="XMLID_350_">
			<path id="XMLID_97_" class="st5" d="M109.2,78c-0.2-0.7-1.8-1.2-3.6-1.5c-2.2-0.4-5-0.5-5.7-0.4c-1.3,0.2-1.7,1.6-2,2.7
				c-0.1,0.2-0.1,0.4-0.1,0.5c-0.6,1.8-0.5,3.5,0.2,5c0.6,1.5,1.8,2.7,3.4,3.2h0.1l0,0c1.5,0.4,3.1,0.1,4.5-0.7
				c1.3-0.8,2.4-2.2,3-3.9l0,0v-0.1c0.3-0.8,0.5-1.7,0.5-2.6C109.5,79.5,109.4,78.7,109.2,78z M107.3,82.4c-0.4,1.4-1.3,2.4-2.3,3.1
				c-1,0.6-2.1,0.8-3.2,0.5l0,0c-1.1-0.3-1.9-1.2-2.3-2.2c-0.4-1.1-0.7-3.3,0.2-4.7c4.6-0.5,6.9,1,7.9,2
				C107.5,81.5,107.4,81.9,107.3,82.4L107.3,82.4z"/>
		</g>
		<g id="XMLID_287_">
			<path id="XMLID_95_" class="st7" d="M107.5,82.3c1.5,0.9,2,2.1,1.4,3.1c-0.3,0.7-2.5,0.9-4-1.2C103.4,82.1,105.6,81.1,107.5,82.3
				L107.5,82.3z"/>
		</g>
		<g id="XMLID_286_">
			<path id="XMLID_93_" class="st3" d="M123.2,102.7c0,0,2.1-8.3-3.6-12.4c-2.1-1.1-9.9-0.9-12.4,1.3c-2.5,2.3-2.3,6.5,0.8,8
				c-2.3,1.2-5.6,5.5-1.9,10c2.5,3,9.4,2.7,13.1-0.3C122.1,106.9,123.2,102.7,123.2,102.7L123.2,102.7z"/>
		</g>
		<g id="XMLID_280_">
			<path id="XMLID_91_" class="st4" d="M116.6,93.9c-1.6-1.1-3.6-0.5-4.3-0.1c-0.5-0.4-2.7-3.6-5.8-0.1c-2.7,3.1,1.4,5.8,1.4,5.8
				s-2.8,2.4-2.9,5.5s2.3,7.1,9.6,6c7.3-1.1,9.5-9.1,8.3-9.4C118.5,100.7,118.8,95.4,116.6,93.9z"/>
		</g>
		<g id="XMLID_284_">
			<path id="XMLID_89_" class="st6" d="M107.9,104.7c1-0.1,1.1,1.6,2,2.3c0.9,0.7-0.4,1.9-1.7,0.7
				C106.9,106.6,106.7,104.8,107.9,104.7L107.9,104.7z"/>
		</g>
		<g id="XMLID_349_">
			<path id="XMLID_82_" class="st5" d="M124.7,101.8c0.4-2.6,0.8-8.7-4.2-12.3c-1.1-0.7-3.3-0.9-4.5-0.9c1-3.1,2.6-10.3-1.9-15.2
				c-3.7-3.8-10-3.3-13.8,0.2c-0.9-0.9-1.6-2.2-1.8-4c-1.1,1-0.7,3.3,0.8,5.1c-0.1,0.2-0.3,0.4-0.4,0.5c-2.8-0.6-3.6-2.6-4.2-3.7
				c-1.2,1.1-0.5,5,2.9,6.3c-0.6,1.6-1,3.5-0.8,5.5c0.6,4.9,3.5,8.3,8.3,9.5c-1.1,2.3-0.8,5,1,6.8c-1.2,1.1-2.3,2.7-2.6,4.6
				c-0.3,1.5-0.2,3.8,1.9,6.1c1.1,1.2,2.8,2.1,4.7,2.4c3.5,0.6,7.4-0.3,10-2.7c3-2.6,4.3-6.9,4.4-7.1v-0.2c0.8-0.4,1.4-0.9,1.8-1.7
				C126.2,101.2,125.6,101.5,124.7,101.8z M107.3,72.8c2.2-0.2,4.2,0.5,5.5,1.8c2.5,2.7,2.1,7,1.6,10c-0.4-1.9-1.3-5.2-3.1-6.8
				c-3.3-3.1-8.1-3.3-8.2-3.1C103.7,73,107.3,72.8,107.3,72.8z M99.7,85.9c-1-2.5-0.7-5.4,0.2-7.6c3.1,0.3,7.6,0.3,9.9,2.6
				c2,2,3.1,5.8,3.5,7.7c-2.4,0.2-4.8,0.6-6.7,2c-0.1,0-0.3,0-0.5-0.1C102.9,89.9,100.7,88.4,99.7,85.9z M118.4,108.4
				c-1.6,1.4-3.8,2.2-6.2,2.2c-2.2,0-4.1-0.7-5.2-1.8c-1.1-1.3-1.6-2.7-1.3-4.1c0.3-1.7,1.6-3.2,2.7-3.9c0.6,0.2,1.3,0.5,2.3,0.6
				c-1.4,1-2,3.3,1,4c2.9,0.7,5.5-2.5,5.5-2.5s2.2,0.6,4.5,0.6C121.1,104.8,120,106.9,118.4,108.4z M122.1,102.2
				c-0.7,0-1.4,0-2.1-0.1c-3.6-0.5-4.2-0.9-5.5-2.4c-1.4-1.5-2.1-2.4-3.4-2.5c-1.2,0-1.6,1-0.9,2l-1.6-0.8c-1.3-0.6-1.7-1.8-1.8-2.5
				c-0.2-1.2,0.3-2.4,1.1-3.3c0,0,0,0,0.1,0c1.5-1.6,5.3-1.7,6-1.7c2.2-0.1,4.3,0.1,5.2,0.5C123.5,94.8,122.4,101,122.1,102.2z"/>
		</g>
		<g id="XMLID_277_">
			<path id="XMLID_80_" class="st5" d="M148,83.7c-7.1,0.5-12.7,6.5-12.7,13.5c0,3.4,1.5,6.5,3.8,8.8c2.4,2.3,5.7,3.7,9.3,3.7
				s6.9-1.4,9.3-3.7c2.4-2.2,3.8-5.4,3.8-8.8c0-6.3-2.2-8.1-3.6-9.5c-1.8-1.9-4.2-4.1,0.3-0.9c3.2,2.2,5.6,6.3,5.6,10.5
				c0,4.1-1.7,7.8-4.5,10.4c-2.8,2.7-6.6,4.3-10.9,4.3c-4.2,0-8.1-1.6-10.9-4.3c-2.8-2.7-4.5-6.4-4.5-10.4c0-4.1,1.7-7.8,4.5-10.4
				c3.7-3.6,8.1-4.1,10.7-4C152,83.1,151.1,83.5,148,83.7L148,83.7z"/>
		</g>
		<g id="XMLID_276_">
			<path id="XMLID_78_" class="st7" d="M148,98.1c1.8,1.2,3.5,3.4,2.8,4.6c-0.4,0.8-3.9,0.2-6-2.2C142.9,97.9,145.7,96.7,148,98.1
				L148,98.1z"/>
		</g>
		<g id="XMLID_275_">
			<path id="XMLID_76_" class="st9" d="M60.7,188.6c-10.9,13.2-28,20.3-42.9,27.8c-6,6.7-7.5,14-5.9,19.6
				c7.8,26,40.9,26.3,78.2,19.2c1.4-0.3,2.2-0.5,3.8-0.7c9.5-1.9,19.3-4.1,29.2-6.5c25.1-5.9,50.9-12.4,73.4-14.6
				c17.2-1.7,32.7-2.5,42.9,5.9c0,0,3.9-5.2,0.8-13.8c-3.1-8.7-13.7-15.5-26-21.2c-14.6-6.8-31.7-13.3-41.4-25.1
				c-2.1,1.3-4.3,2.5-8.7,4.3s-11.1,4.1-19.5,6.2c-8.4,2.1-18.4,3.8-27.8,4.8c-6.8,0.7-13.3,1.1-19.4,1c-10.3,0.7-8.7,1.1-17.6-1.4
				c-3.7-0.6-7-1.2-9.6-1.9C65.4,191,63,189.8,60.7,188.6L60.7,188.6z"/>
		</g>
		<g id="XMLID_247_">
			<path id="XMLID_54_" class="st3" d="M59.6,201.6c0.8,0.9,2.9,1.9,4.7,2.5c1.8,0.6,3.5,0.8,4.7,0.7c1.2-0.2,2.1-0.7,3.4-2.9
				c1.4-2.2,3.2-6.2,3.9-8.4c-2.3-0.4-4.3-0.8-6-1.3c-1.6-0.4-2.9-0.8-4.1-1.2c-0.2,0.2-0.3,0.3-0.5,0.5c-1.6,1.6-3.9,4.6-5.3,6.5
				C59.1,200,58.7,200.7,59.6,201.6z M39,210.7c0.6,0.1,1.3-0.3,2.9-1.6c1.6-1.3,4.3-3.7,5.6-5.1c1.3-1.5,1.3-2.1,0.8-3
				c-0.1-0.2-0.3-0.5-0.5-0.8c-3.8,2.6-7.8,5-11.9,7.2c0.4,0.7,0.8,1.3,1.2,1.8C37.9,210.1,38.4,210.6,39,210.7z M33.2,216.3
				c1.3-1.3,1.5-1.9,1.2-3s-1.1-2.8-1.8-3.9c-0.1-0.1-0.1-0.2-0.2-0.2c-4.1,2.1-8.3,4.1-12.3,6.1c0.1,0.7,0.4,1.4,0.7,2.2
				c0.5,1.2,1.3,2.4,1.9,3.3c0.6,0.9,1.1,1.3,1.8,1.4c0.7,0.1,1.8-0.2,3.4-1.3C29.7,219.7,32,217.6,33.2,216.3z M53.2,227.8
				c-1.1-0.7-3.3-1.6-5.6-2.7c-2.3-1.1-4.6-2.4-6.1-3.1c-1.6-0.8-2.4-1.1-3.1-1.1c-0.7-0.1-1.4,0.1-2.6,0.9
				c-1.1,0.8-2.7,2.2-3.6,3.3c-0.9,1-1.2,1.7-1.2,2.5s0.3,1.7,0.9,2.7s1.6,2.2,3.2,3.4c1.6,1.1,3.7,2.2,5.7,3.1
				c2,0.8,3.8,1.4,5.3,1.8c1.5,0.3,2.5,0.4,3.4,0s1.6-1.4,2.4-3c0.8-1.6,1.7-3.9,2.1-5.2C54.5,228.9,54.4,228.5,53.2,227.8z
				 M78.7,227.6c-2.5-0.1-7.1,0.1-10,0.3c-3,0.2-4.4,0.5-5.6,1.7c-1.3,1.2-2.4,3.4-3.1,4.9c-0.7,1.5-0.8,2.2-0.8,2.9
				s0.2,1.3,2.4,1.5s6.5-0.1,10.1-0.5c3.5-0.3,6.4-0.7,7.9-1.3s1.8-1.5,2-3c0.2-1.4,0.3-3.4,0.1-4.7
				C81.5,228.3,81.2,227.7,78.7,227.6z M53.4,197.5c0.5,0.4,0.9,0.6,1.4,0.5c0.6-0.1,1.3-0.4,3-2s4.5-4.4,5.8-6
				c-1.1-0.5-2-0.9-2.9-1.4c-2.5,3-5.2,5.6-8.2,8C52.8,197,53.1,197.2,53.4,197.5z M113.4,219.9c-0.7-1.6-1.5-1.9-5.1-0.8
				c-3.6,1.1-10.1,3.6-13.5,5.1s-3.8,2-4.1,3.5c-0.3,1.5-0.5,4-0.5,5.7c0.1,1.7,0.4,2.5,4.4,1.7s11.8-3.1,15.9-4.7
				c4.1-1.6,4.5-2.4,4.4-4.3C114.8,224.3,114.1,221.5,113.4,219.9z M63.8,213.6c0.9-1.8,0.8-2.3-0.5-3.1s-3.9-1.9-5.8-2.6
				c-1.8-0.7-2.9-1.1-3.8-1.2c-0.9-0.1-1.6,0.1-3,1c-1.4,1-3.4,2.8-4.9,4.2s-2.4,2.3-2.9,3.1c-0.4,0.8-0.4,1.4,0.3,2.1
				c0.7,0.7,2.1,1.6,3.9,2.6c1.8,1,4.2,2.1,6,2.7c1.8,0.6,3,0.7,3.9,0.5s1.4-0.8,2.6-2.6C61,218.6,62.9,215.5,63.8,213.6z
				 M81.8,194.6c-1.6,2.2-3.3,6.4-3.8,8c-0.6,1.8-0.4,2.3,1.4,2.1s5.1-0.9,7-1.4s2.2-0.7,2.8-2.1c0.4-0.9,1.1-3.3,1.5-5.2
				C87.6,196.2,86.3,195.9,81.8,194.6z M85.7,208.1c-2,0.2-7,0.7-9.3,1.4s-3,1.3-4.5,3.7s-4.2,9.4-4,9.8c0.2,0.4,0.6,0.7,3.1,0.8
				c2.6,0,7.3-0.3,9.9-0.7s3,0,3.9-2.9c1-2.9,1.7-6.3,2.4-9.1C87.9,208.2,87.8,207.9,85.7,208.1z M154.5,197.2
				c-1.4-1.6-4.3-4.4-6.5-5.8c-1.9-1.3-3.1-1.4-5-1.2c-2.7,0.6-5.5,1.2-8.4,1.8c-0.5,0.2-0.4,0.4-0.4,0.5c0,0.2,0.1,0.4,1.1,1.8
				c1,1.4,3,4.1,4.6,5.5c1.6,1.5,2.8,1.8,5.4,1.5c2.5-0.2,6.4-1,8.4-1.6C155.7,199.1,155.8,198.7,154.5,197.2z M139.1,211.2
				c-1.9-1.5-3.2-1.4-6.1-0.7c-2.9,0.7-7.3,2.1-9.6,3c-2.3,1-2.5,1.6-2.1,3.4c0.4,1.8,1.4,4.9,2.2,6.4c0.9,1.6,1.7,1.6,3.8,1.1
				c2.1-0.6,5.6-1.8,8.7-2.6c3.1-0.9,5.8-1.4,7.3-1.9c1.6-0.5,2-0.8,1-2.5C143.5,215.7,141,212.7,139.1,211.2z M96.5,218.5
				c3.1-1,8.9-3.4,11.8-4.8c3-1.4,3.3-1.9,3-4c-0.2-2.1-1-6-1.5-8.1c-0.6-2.1-0.9-2.3-3.2-1.7c-2.3,0.6-6.5,2.1-8.8,3.2
				c-2.3,1.1-2.8,1.7-3.2,2.3c-0.4,0.6-0.8,1.2-1.2,3.4c-0.4,2.2-0.8,6-0.7,8.1C92.8,219.1,93.4,219.5,96.5,218.5z M214.3,204.3
				c-3-1.4-6.2-2.8-9.3-4.2c-0.9,0.1-1.6,0.2-2.1,0.3c-0.9,0.2-0.9,0.5-0.3,1.4c0.7,0.9,2,2.3,4,3.6c2,1.4,4.6,2.7,6.7,3.5
				c2.1,0.8,3.7,1.1,6.9,1.2c1.5,0.1,3.3,0.1,5.1,0.1C222,208.1,218.3,206.2,214.3,204.3z M193.8,194.7c-2.7-1.4-5.4-2.9-7.9-4.5
				c1,0.9,2.1,1.7,3,2.4C190.9,194.1,192.1,194.6,193.8,194.7z M202.1,208.4c-1.5-1.3-4.8-3.4-7-4.4c-2.2-1.1-3.4-1.2-7-1.1
				c-3.7,0.1-9.9,0.5-13.2,0.9c-3.3,0.5-3.6,1-2.5,2.4s3.5,3.6,5.7,4.9c2.2,1.3,4,1.8,8.1,1.6s10.4-1,13.7-1.7
				S203.6,209.7,202.1,208.4z M163.1,195.9c2,1.7,3.1,2,6.2,1.8c3.2-0.2,8.4-0.9,11.1-1.4c2.7-0.5,2.8-0.8,0.9-2.6
				c-1.9-1.8-5.9-5.2-8.8-6.9c-2.9-1.7-4.7-1.9-7.3-1.7c-2.6,0.1-6,0.5-7.8,0.9c-0.4,0.1-0.7,0.2-1.1,0.4c-0.7,0.3-0.8,0.6-0.8,0.9
				c-0.1,0.3-0.2,0.5,1.2,2.2C158.2,191.1,161.1,194.2,163.1,195.9z M169.4,212.2c-1.6-1.5-5-4.2-7.1-5.6c-2.1-1.4-2.9-1.5-4.9-1.3
				s-5.2,0.7-6.9,1.2s-1.9,1-1.1,2.5c0.8,1.5,2.7,4,3.8,5.5c1.2,1.4,1.6,1.8,4.4,1.6c2.8-0.2,8-0.9,10.6-1.5
				C170.9,214.2,171,213.7,169.4,212.2z M100.3,196.9c1.2-0.3,3.2-0.9,4.8-1.5c-2.3,0.1-4.6,0.1-6.9,0.1c0,0.3,0,0.7,0,0.9
				C98.2,197.3,98.5,197.4,100.3,196.9z M128.8,205.8c2.3-0.6,3.8-0.8,4.6-1.1s1-0.7-0.1-2.3c-1.1-1.7-3.4-4.6-5-6.2
				c-1.6-1.6-2.5-1.7-4.3-1.5c-1.8,0.3-4.5,1-6.1,1.5s-2,0.8-2.4,1.2c-0.3,0.4-0.5,0.9-0.1,2.8c0.4,1.9,1.5,5,2.4,6.6
				s1.5,1.6,3.5,1.1C123.3,207.4,126.5,206.4,128.8,205.8z"/>
		</g>
		<g id="XMLID_253_">
			<path id="XMLID_52_" class="st3" d="M91.3,180.4c-7.5-0.6-15-1.8-20.1-2.8c-5-1-7.5-1.8-9.9-2.7c-0.1,1.5-0.3,3-0.4,4.5
				c-0.2,3.1-0.3,6.2-0.3,9.2c2.3,1.2,4.7,2.4,9.6,3.7c5,1.2,12.5,2.5,20.6,3.1c8.1,0.5,16.7,0.3,26-0.7s19.4-2.8,27.8-4.8
				c8.4-2.1,15-4.4,19.5-6.2c4.4-1.8,6.6-3,8.7-4.3c-1.3-4.1-2.1-8.5-2.5-12.9c-4.1,2.1-8.3,4.2-13.8,6.2c-5.6,2-12.6,3.9-20,5.4
				c-7.4,1.4-15.2,2.4-22.8,2.8C106.2,181.2,98.8,181,91.3,180.4L91.3,180.4z"/>
		</g>
		<g id="XMLID_250_">
			<path id="XMLID_48_" class="st5" d="M91.2,181.5c-3.5-0.3-7-0.7-10.4-1.2c-3.8-0.5-7.2-1.1-9.8-1.6c-2.5-0.5-4.4-1-6-1.4
				c-1-0.3-1.8-0.6-2.7-0.8l-0.1,0.8c-0.1,0.8-0.1,1.5-0.2,2.2c-0.1,1.6-0.2,3.1-0.2,4.6c0,1.3-0.1,2.6-0.1,3.8
				c2.1,1.1,4.4,2.1,8.8,3.3c2.6,0.7,6,1.3,9.7,1.9c3.3,0.5,6.9,0.9,10.7,1.1c4,0.3,8.2,0.3,12.4,0.2c4.3-0.1,8.7-0.4,13.4-0.9
				c4.6-0.5,9.4-1.2,14-2c4.8-0.8,9.4-1.8,13.6-2.8c3.7-0.9,7.1-1.9,10.1-2.8l0,0c3.7-1.2,6.8-2.3,9.2-3.3c3.8-1.5,5.9-2.7,7.8-3.8
				c-0.6-1.8-1-3.7-1.4-5.6c-0.3-1.7-0.6-3.3-0.8-5c-1.6,0.8-3.2,1.6-4.9,2.4c-2.3,1-4.7,2.1-7.5,3.1c-2.9,1-6.1,2.1-9.6,3
				c-3.3,0.9-6.9,1.7-10.6,2.4c-3.7,0.7-7.6,1.3-11.4,1.8c-3.8,0.5-7.7,0.8-11.6,1c-3.8,0.2-7.6,0.3-11.4,0.2
				C98.7,182,94.9,181.8,91.2,181.5L91.2,181.5z M81.1,178.1c3.2,0.4,6.7,0.8,10.3,1.2c3.8,0.3,7.5,0.5,11.1,0.6
				c3.7,0.1,7.4,0,11.2-0.2c3.7-0.2,7.6-0.5,11.4-1s7.6-1.1,11.3-1.8c3.6-0.7,7.1-1.5,10.4-2.4c3.4-0.9,6.6-1.9,9.4-2.9
				c2.7-1,5.1-2,7.4-3c2.2-1,4.3-2.1,6.3-3.1l1.5-0.8l0.1,1.7c0.2,2.2,0.5,4.3,0.9,6.4c0.4,2.1,0.9,4.2,1.6,6.2l0.3,0.8l-0.7,0.5
				l0,0h-0.1c-2.2,1.3-4.4,2.5-8.8,4.4c-2.4,1-5.6,2.1-9.4,3.3l0,0c-3,1-6.4,1.9-10.3,2.9c-4.3,1-8.9,2-13.7,2.8
				c-4.7,0.8-9.5,1.5-14.2,2s-9.2,0.8-13.6,0.9c-4.4,0.1-8.6,0.1-12.7-0.2c-3.8-0.2-7.5-0.7-10.8-1.2c-3.9-0.6-7.3-1.3-10-1.9
				c-5-1.3-7.4-2.5-9.8-3.7l-0.7-0.2v-0.8c0-1.5,0-3,0.1-4.6c0-1.6,0.1-3.1,0.2-4.7c0.1-0.8,0.1-1.6,0.2-2.3c0-0.6,0.1-1.4,0.2-2.2
				l0.1-1.4l1.4,0.5c1.2,0.4,2.4,0.8,3.9,1.3c1.5,0.4,3.4,0.9,5.8,1.4C74.1,177,77.5,177.6,81.1,178.1L81.1,178.1z"/>
		</g>
		<g id="XMLID_249_">
			<path id="XMLID_45_" class="st5" d="M135.5,269.9c7.2,0.1,15.2-9.3,18.8-14.6c1-1.5,1.7-1.2,1.1,0.4
				c-5.7,16.1-27.5,27.6-33.6,2.7c-0.5-1.9-0.7-3.1,0.9-0.3C125.6,263.6,129.9,269.8,135.5,269.9L135.5,269.9z"/>
		</g>
		<g id="XMLID_245_">
			<path id="XMLID_42_" class="st4" d="M79.7,184.9c0-0.7,0-1.3,0-1.9c0-0.6,0.1-1.2,0.2-1.7s0.2-1,0.3-1.5c0.1-0.4,0.3-0.8,0.4-1.2
				c0.2-0.4,0.4-0.7,0.6-1s0.4-0.5,0.7-0.8c0.2-0.2,0.5-0.4,0.8-0.6c0.3-0.2,0.6-0.3,0.9-0.4c0.3-0.1,0.6-0.2,0.9-0.3s0.7-0.1,1-0.2
				c0.4,0,0.7-0.1,1.1-0.1s0.7,0,1.1,0s0.7,0,1.1,0s0.8,0,1.1,0.1l0,0c0.3,0,0.7,0.1,1.1,0.1c0.3,0,0.7,0.1,1,0.1
				c0.4,0,0.7,0.1,1.1,0.2c0.3,0.1,0.7,0.1,1.1,0.2c0.4,0.1,0.7,0.2,1.1,0.4s0.9,0.3,1.3,0.6c0.4,0.2,0.8,0.4,1.2,0.7
				c0.3,0.2,0.7,0.5,1,0.7s0.6,0.5,0.8,0.8c0.2,0.3,0.5,0.6,0.6,0.9c0.2,0.3,0.3,0.6,0.4,1l0,0c0.1,0.3,0.2,0.7,0.3,1
				c0.1,0.3,0.1,0.7,0.1,1s0.1,0.7,0.1,1s0,0.7,0,1s-0.1,0.7-0.2,1.1c-0.1,0.4-0.2,0.7-0.3,1.2c-0.1,0.5-0.3,0.9-0.5,1.4
				s-0.4,1-0.7,1.5c-0.2,0.5-0.5,0.9-0.8,1.4c-0.3,0.4-0.6,0.9-0.9,1.4c-0.4,0.5-0.8,1-1.2,1.5c-0.4,0.5-0.9,1-1.4,1.4
				s-0.9,0.9-1.4,1.2c-0.5,0.4-0.9,0.7-1.3,1s-0.8,0.5-1.2,0.7c-0.4,0.2-0.8,0.3-1.1,0.4c-0.3,0.1-0.7,0.2-1,0.2s-0.6,0.1-0.8,0.1
				c-0.2,0-0.4,0-0.6,0s-0.4-0.1-0.6-0.1l0,0c-0.2-0.1-0.4-0.2-0.6-0.3s-0.4-0.2-0.7-0.4c-0.3-0.2-0.6-0.4-0.9-0.6
				c-0.3-0.2-0.6-0.5-0.9-0.8s-0.6-0.7-0.9-1.1c-0.3-0.4-0.6-0.8-0.9-1.3s-0.5-1-0.7-1.6s-0.4-1.2-0.6-1.8c-0.2-0.7-0.4-1.4-0.5-2.1
				c-0.1-0.7-0.3-1.5-0.3-2.2C79.8,186.2,79.7,185.6,79.7,184.9L79.7,184.9L79.7,184.9z"/>
		</g>
		<g id="XMLID_242_">
			<path id="XMLID_38_" class="st5" d="M90.9,176c-0.7-0.1-1.4-0.1-2.2-0.2c-0.7,0-1.4,0-2.2,0c-0.7,0-1.4,0.1-2,0.3
				c-0.6,0.1-1.2,0.4-1.7,0.7s-0.9,0.7-1.3,1.2s-0.7,1.2-0.9,2c-0.2,0.9-0.4,1.9-0.4,3.1c-0.1,1.2,0,2.5,0.1,3.8
				c0.2,1.4,0.4,2.8,0.8,4.2c0.3,1.2,0.8,2.3,1.3,3.3c0.5,0.9,1.1,1.7,1.7,2.3s1.2,1.1,1.7,1.4c0.5,0.3,0.8,0.5,1.2,0.6
				c0.3,0.1,0.6,0.1,1.1,0.1s1-0.1,1.6-0.3s1.4-0.5,2.2-1c0.8-0.5,1.7-1.3,2.6-2.1c0.9-0.9,1.8-1.9,2.5-2.8c0.7-0.9,1.2-1.8,1.7-2.7
				c0.5-1,0.9-2,1.2-2.8c0.2-0.8,0.4-1.5,0.4-2.1c0.1-0.6,0-1.2,0-1.9c-0.1-0.6-0.2-1.3-0.4-1.9l0,0c-0.2-0.6-0.5-1.2-0.9-1.7
				s-1-1-1.6-1.4c-0.8-0.5-1.6-0.9-2.4-1.2c-0.7-0.3-1.4-0.5-2.1-0.6C92.3,176.1,91.6,176,90.9,176L90.9,176z M89,172.8
				c0.5-1,0.8-3.5,2.3-3.3c1.4,0.1,1.3,3.1,1.5,3.9c0.7-0.9,2-3.5,3.4-2.8c0.8,0.4,0.6,2.4,0.6,3.4c0.2-0.1,0.4-0.3,0.6-0.5
				c2-2,5.5-0.6,1.7,2.2c-0.1,0.1-0.2,0.2-0.4,0.3c0.8,0.5,1.5,1.1,2.1,1.8c0.6,0.8,1.1,1.6,1.4,2.4l0,0c0.3,0.8,0.4,1.6,0.5,2.4
				c0.1,0.8,0.1,1.5,0,2.3s-0.2,1.6-0.5,2.5c-0.3,1-0.7,2.1-1.3,3.2c-0.5,1-1.1,2-1.9,3c-0.8,1.1-1.8,2.2-2.7,3.1c-1,1-2,1.8-3,2.4
				c-1,0.6-1.9,1-2.8,1.3c-0.8,0.2-1.6,0.3-2.2,0.4c-0.7,0-1.2,0-1.8-0.2c-0.6-0.2-1.1-0.5-1.7-0.9s-1.3-0.9-2.1-1.7
				c-0.7-0.7-1.5-1.7-2.1-2.8s-1.1-2.4-1.5-3.7c-0.4-1.5-0.7-3-0.9-4.5c-0.2-1.4-0.2-2.9-0.2-4.2c0.1-1.3,0.2-2.5,0.5-3.6
				s0.7-2,1.2-2.7c0.5-0.8,1.2-1.3,1.9-1.8c0.7-0.4,1.5-0.7,2.3-0.9s1.6-0.3,2.4-0.3l0,0c-0.9-1.4-1.7-2.7-0.4-3.5
				C87.3,169.2,88,171.3,89,172.8L89,172.8z"/>
		</g>
		<g id="XMLID_234_">
			<path id="XMLID_26_" class="st10" d="M86.9,194.8c-2.6,1.3-3.3-5.2-0.4-3.3C87.3,192,87.7,194.4,86.9,194.8L86.9,194.8z
				 M84.2,182.6c-1.7-0.3-0.5-3.6,0.9-4.5c0.6-0.4,1-0.4,1.5,0C87.5,179.1,85.3,182.8,84.2,182.6L84.2,182.6z M89.3,184.2
				c-2.9,0.1-0.5-5.8,1-5.6C92.6,179,90.5,184.2,89.3,184.2L89.3,184.2z M95.8,184.6c-2,0.1-2.2-4.8-1.3-5.1
				C97,178.8,98.1,184.4,95.8,184.6L95.8,184.6z M85.4,189.3c-2.2,1.9-3.7-4.2-1.1-4.4C85.9,184.8,85.7,189.1,85.4,189.3L85.4,189.3
				z M88.9,190.5c-1.5-0.3-0.8-4.5,0.8-4.4C91.1,186.2,90.8,190.9,88.9,190.5L88.9,190.5z M95.9,187.8c-0.1,1.2-1.7,3.6-2.4,3.3
				c-0.4-0.2-1.2-0.6,0.1-3.3C94.5,185.7,95.9,187.3,95.9,187.8L95.9,187.8z M90.9,192.3c-1.6,0-2.2,3.8-0.9,3.5
				c1-0.3,1.5-1,1.8-1.5C92.4,193.3,92.1,192.4,90.9,192.3z"/>
		</g>
		<g id="XMLID_232_">
			<path id="XMLID_22_" class="st3" d="M173.8,255.9c28.3,4.2,46.3,1.3,66.4-18.2c-10.9-5-25.6-6.5-41.9-5
				C191.5,241.7,182.6,250.7,173.8,255.9L173.8,255.9z"/>
		</g>
		<g id="XMLID_230_">
			<path id="XMLID_20_" class="st7" d="M212.8,110c-0.7,3.2-1.9,6.4-3.8,9.6c-1.9,3.3-4.7,6.6-7.8,9.8c-3.1,3.1-6.7,6-10.2,8.2
				c-3.5,2.1-7,3.5-10.7,4.5c-1.9,0.5-7.3,1.6-13.4,3c-6.6,1.5-10.3,7.7-2.2,12c1.5,0.8,3.8,1.3,7.6,1.7c3.8,0.3,9.2,0.5,13.7,0.4
				s8.2-0.6,12.5-1.7c4.3-1.1,9.2-2.8,13.1-4.7c4-1.9,7-3.9,9.7-6.5c2.7-2.5,5-5.5,6.9-8.4s3.4-5.8,4.4-8.7c1.1-2.9,1.7-5.8,2.2-9
				c0.4-3.2,0.7-6.8,0.7-11.1c0-4.3-0.2-9.3-0.8-13.6c-0.6-4.3-1.6-8-2.9-11.5s-3.1-6.7-6.2-11.1c-3.1-4.4-7.5-9.9-10.5-13.8
				s-4.6-6.3-6.1-8.7c-0.7,1.5-1.4,3.1-1.8,4.7c-0.4,1.7-0.3,3.5-0.3,5.3c-1.6-1.9-2.7-3.8-3.8-5.6c-0.6,2.2-1.3,4.3-1.6,6.7
				s-0.3,4.9-0.1,7s0.7,3.6,1.2,5.1c-0.5,1.9-1,3.9-0.9,6c0,2.2,0.6,4.6,1.6,6.8c1,2.3,2.3,4.3,4.2,6.6c1.9,2.3,4.3,4.7,6.7,7.1
				C213.8,103.5,213.5,106.8,212.8,110L212.8,110z"/>
		</g>
		<g id="XMLID_229_">
			<path id="XMLID_17_" class="st6" d="M212.4,114.5c1.5-4.1,2-7.9,2.5-12.1l0.8,0.9c3.9,4,7,11.5,8.4,19.3
				c1.3,7.5,1.2,15.3-1.2,20.5l-0.9,2C223,132.2,219.9,123.1,212.4,114.5L212.4,114.5z"/>
		</g>
		<g id="XMLID_226_">
			<path id="XMLID_12_" class="st5" d="M225.3,139.5c11.1-15.2,11.8-43.5,2.7-60c-1-1.8-2.1-3.6-3.6-5.8c-2.1-3-4.9-6.6-7.4-9.8
				c-2.2-2.8-4.3-5.5-6.3-8.4c-1.3-1.8-1.4-3-2-0.2c-0.1,0.6-0.2,1.2-0.2,1.9c-0.1,2.1-0.4,2.3,1,3.8c1.2,1.3,2.5,2.5,3.7,3.6
				c2.4,2.3,4.6,4.4,6.7,7c3.8,4.9,3,6.7-1.3,1.4c-3.6-4.4-8.7-7.2-12.8-11.8c-2.2-2.5-2.4-2.5-2.8,0.4c-0.6,4.1-0.2,7.4,1,11.2
				c2.2,3.1,7.7,8.2,10.7,10.2c3.9,2.8,3.5,3.3-0.9,1.4c-2.9-1.2-6.1-3.4-8.6-5.7c-1.8-1.7-2.1-2.7-2,1c0,0.9,0.2,1.8,0.4,2.8
				c1.5,6.7,7,11.7,11.7,16.4C225.1,108.9,228.7,126.2,225.3,139.5L225.3,139.5z M215.3,103.6c-0.2,2.2-0.6,4.5-1.1,6.7
				c-5.1,21.2-24.6,31.4-45.2,34.8c-7.1,1.2-5.7-0.9,0.1-2.1c1.8-0.4,3.5-0.8,4.9-1.1c6-1.3,10.8-2.4,16.2-5.7
				c14.3-8.7,20.8-19.4,22.3-35.5c-2.3-2.3-4.5-4.5-6.3-6.7c-1.8-2.1-3.4-4.4-4.5-7c-1-2.3-1.6-4.9-1.7-7.4c0-2.2,0.4-4.1,0.9-6
				c-0.5-1.5-0.9-3-1.1-5c-0.3-2.4-0.2-5,0.1-7.4c0.1-1.1,2.3-11,4.7-6.7c0.3,0.4,0.5,0.9,0.8,1.3c0.2-1.3,0.5-2.5,1-3.7
				c1.6-3.8,3.3-3.2,5.1-0.5c4.7,6.9,10.4,13.3,15.3,20.2c1.6,2.2,2.8,4.2,3.8,6c1.9,3.5,3.3,7.2,4.3,11c3.9,15.4,3.3,36.1-5.5,49.7
				c-2,3.1-4.4,6.1-7.1,8.7c-3,2.8-6.4,5-10.1,6.7c-13.1,6.3-25.7,7.4-40.1,6.2c-1.5-0.1-3.2-0.3-4.7-0.7c-3.1-0.7-2.2-1.9,0.8-1.9
				c9.9,0,20.7,0.3,30.2-1.8c8.4-1.8,16.3-5.3,22.9-11.4C227.7,135,223.3,111.8,215.3,103.6L215.3,103.6z"/>
		</g>
		<g id="XMLID_146_">
			<path id="XMLID_9_" class="st5" d="M135.1,95.3c0,0,8.6-1.2,13.4,3c1.3-2.9-0.8-6.2-4.9-6.8C138.7,90.8,135.6,93.1,135.1,95.3z"
				/>
		</g>
		<g id="XMLID_248_">
			<path id="XMLID_5_" class="st5" d="M233.5,213.6c-7.2-6.1-16.2-9.7-24.8-13.6c-12.8-5.8-26.4-11.9-34.6-21.8l-2.3,1.9
				c8.6,10.4,22.5,16.7,35.7,22.6c9.9,4.4,21.5,8.9,28.6,17.5c3.9,4.8,5.4,11.7,2.6,17.4c-9.1-15.5-66-3.1-106.7,6.4
				c-27.2,6.4-85.8,22.5-109.9,4.6c-6.2-4.6-9.3-11.4-9.4-17.7c4.2,19.9,35.7,23,63.9,17.3c41.2-8.3,47.4-11.9-0.4-2.2
				c-8.8,1.8-17.8,2.7-26.8,2.5c-7.7-0.2-15.8-1.3-22.8-4.7c-4-2-7.6-4.9-9.9-8.8c-2.1-3.7-3.2-8.7-1.7-12.9c1-2.9,3.4-4.9,6-6.3
				c14.2-7,31.5-14.7,41-26.3l-2.3-1.9c-9.1,11-25.9,19.3-39.8,26.2c-13.4,6.7-12.6,27.7,0.7,37.7c21.9,16.5,67.8,5.9,112.2-4.4
				c15.7-3.7,31.5-7.4,47.4-10.1c13.6-2.3,27.4-4.8,41.2-3.5c5.9,0.6,13,1.3,14.5,4.6c1.2,2.7-4.6,7.1-6.2,8.3
				c-7.2,5.3-15.3,7.4-24.1,8.9c-11.1,1.9-22.5,1-33.5-1.4c-0.2,0.9-0.3,1.9-0.5,2.8c11,2.7,22.5,3.7,33.7,1.9
				c13.1-2.1,27.8-6.6,35-17.9C247.2,229.7,240.8,219.8,233.5,213.6z M199.1,218.7c-9.4,0.7-17.6,4-18.8,4.3
				c-3.3,1,8.5-1.1,18.5-2.1s15.8-0.6,16-1.2C214.8,219.3,208.5,218,199.1,218.7z"/>
		</g>
	</g>
</g>
</svg>
